<svg width="48" height="48" viewBox="0 0 48 48" fill="none" xmlns="http://www.w3.org/2000/svg">
<g filter="url(#filter0_d_586_4791)">
<rect x="4" y="2" width="40" height="40" rx="20" fill="#2B2925"/>
<path d="M33.25 22C33.25 24.4533 32.2754 26.806 30.5407 28.5407C28.806 30.2754 26.4533 31.25 24 31.25V32.75C29.937 32.75 34.75 27.937 34.75 22H33.25ZM24 31.25C21.5467 31.25 19.194 30.2754 17.4593 28.5407C15.7246 26.806 14.75 24.4533 14.75 22H13.25C13.25 27.937 18.063 32.75 24 32.75V31.25ZM14.75 22C14.75 19.5467 15.7246 17.194 17.4593 15.4593C19.194 13.7246 21.5467 12.75 24 12.75V11.25C18.063 11.25 13.25 16.063 13.25 22H14.75ZM27.5 24.25C25.975 24.25 24.5125 23.6442 23.4341 22.5659C22.3558 21.4875 21.75 20.025 21.75 18.5H20.25C20.25 20.4228 21.0138 22.2669 22.3735 23.6265C23.7331 24.9862 25.5772 25.75 27.5 25.75V24.25ZM32.425 21.469C31.9136 22.3179 31.1913 23.0201 30.3284 23.5074C29.4654 23.9947 28.4911 24.2505 27.5 24.25V25.75C28.7494 25.7507 29.9778 25.4283 31.0659 24.8141C32.154 24.2 33.0648 23.315 33.71 22.245L32.425 21.469ZM21.75 18.5C21.7496 17.509 22.0054 16.5347 22.4927 15.6717C22.98 14.8088 23.6822 14.0865 24.531 13.575L23.755 12.291C22.6851 12.936 21.8001 13.8466 21.186 14.9346C20.5718 16.0225 20.2494 17.2507 20.25 18.5H21.75ZM24 12.75C23.8986 12.7476 23.8022 12.7052 23.732 12.632C23.6891 12.5902 23.6604 12.536 23.65 12.477C23.646 12.446 23.648 12.356 23.755 12.291L24.531 13.575C25.034 13.271 25.196 12.714 25.137 12.276C25.075 11.821 24.717 11.25 24 11.25V12.75ZM33.71 22.245C33.644 22.352 33.554 22.354 33.523 22.35C33.464 22.3396 33.4098 22.3109 33.368 22.268C33.2948 22.1978 33.2524 22.1014 33.25 22H34.75C34.75 21.283 34.179 20.925 33.724 20.863C33.286 20.804 32.729 20.966 32.425 21.469L33.71 22.245Z" fill="#D5CEBF"/>
</g>
<defs>
<filter id="filter0_d_586_4791" x="0" y="0" width="48" height="48" filterUnits="userSpaceOnUse" color-interpolation-filters="sRGB">
<feFlood flood-opacity="0" result="BackgroundImageFix"/>
<feColorMatrix in="SourceAlpha" type="matrix" values="0 0 0 0 0 0 0 0 0 0 0 0 0 0 0 0 0 0 127 0" result="hardAlpha"/>
<feOffset dy="2"/>
<feGaussianBlur stdDeviation="2"/>
<feComposite in2="hardAlpha" operator="out"/>
<feColorMatrix type="matrix" values="0 0 0 0 0 0 0 0 0 0 0 0 0 0 0 0 0 0 0.15 0"/>
<feBlend mode="normal" in2="BackgroundImageFix" result="effect1_dropShadow_586_4791"/>
<feBlend mode="normal" in="SourceGraphic" in2="effect1_dropShadow_586_4791" result="shape"/>
</filter>
</defs>
</svg>
