<svg width="32" height="32" viewBox="0 0 32 32" fill="none" xmlns="http://www.w3.org/2000/svg">
<g clip-path="url(#clip0_349_203)">
<rect width="32" height="32" fill="#231F20"/>
<path d="M6.2055 31.4375L10.5361 20.4797H21.3848L26.1391 31.4375H28.9375L16.0181 0.375C11.6997 10.7292 7.3812 21.0833 3.0625 31.4375" fill="#95774C"/>
<path d="M31.5427 0.365723H18.3969L18.9864 5.87518C18.9864 5.87518 20.0205 6.36464 20.6353 6.76118C21.0579 7.03375 21.3096 7.17425 21.6783 7.51773C22.2224 8.02462 22.4252 8.41401 22.8179 9.04805C23.2363 9.72344 23.4208 10.1355 23.7285 10.8693C23.9946 11.5037 24.1783 12.15 24.3157 12.531C24.4531 12.912 24.7252 14.1017 24.7655 14.5088C24.8058 14.9158 24.8846 15.5483 24.924 16.2173C25.0032 17.563 25.0272 18.328 24.8928 19.6692C24.7768 20.8275 24.4352 22.1066 24.3643 22.6019C24.2933 23.0972 24.1594 23.5797 23.9662 24.0358C23.7731 24.4919 23.4054 25.6589 22.7941 26.552C22.3594 27.187 22.0727 27.5236 21.5006 28.0351C20.8909 28.5801 20.5125 28.8714 19.771 29.21C19.2577 29.4444 18.9457 29.5251 18.3969 29.653C17.5213 29.857 17.005 29.8604 16.1066 29.874C15.1564 29.8884 14.6046 29.9201 13.679 29.7022C12.9355 29.5272 12.5141 29.3882 11.8468 29.0131C11.2623 28.6846 10.9716 28.4299 10.4727 27.9795C9.8983 27.4608 9.58264 27.1461 9.14437 26.5057C8.62198 25.7425 8.46035 25.2275 8.13072 24.3611C7.76799 23.4078 7.62181 22.8475 7.41388 21.8478C7.18559 20.7503 7.11852 20.1186 7.05523 18.9988C6.97553 17.5888 7.02365 16.7891 7.16424 15.3839C7.25459 14.481 7.28388 13.9659 7.49862 13.0848C7.76691 11.9838 8.01414 11.384 8.51318 10.3687C8.6934 10.002 8.80398 9.80099 9.00787 9.44724C9.36869 8.82123 9.52886 8.42845 10.0156 7.89674C10.5621 7.29962 10.9772 7.0686 11.6705 6.65584C12.1633 6.36247 12.9846 6.00266 12.9846 6.00266L13.5883 0.365723H0.491455L1.92559 3.66362L11.3288 3.56517L11.2637 4.96358C11.2637 4.96358 8.68358 5.84373 7.29407 6.85947C6.14117 7.70223 4.70134 9.44724 4.70134 9.44724C4.70134 9.44724 3.93117 10.627 3.54753 11.4417C3.02932 12.5423 2.80695 13.2044 2.54853 14.3951C2.36677 15.2325 2.31247 15.7149 2.25355 16.5702C2.18511 17.5637 2.1901 18.1281 2.27371 19.1204C2.35648 20.1029 2.43544 20.6566 2.67449 21.6125C2.88192 22.442 3.03021 22.903 3.36156 23.6902C3.76109 24.6394 4.00943 25.1768 4.61065 26.0101C5.1799 26.7991 5.58676 27.1789 6.30541 27.8313C7.00731 28.4685 7.42696 28.8064 8.2292 29.308C8.94539 29.7557 10.153 30.2924 10.153 30.2924L12.26 31.0307C12.26 31.0307 13.5892 31.3567 14.4586 31.4245C15.1007 31.4746 15.4637 31.4412 16.1076 31.4319C17.0743 31.418 17.6246 31.4692 18.581 31.3261C19.6348 31.1684 20.2229 31.0019 21.2157 30.6109C22.1197 30.2548 22.5991 29.9783 23.4299 29.4714C24.4577 28.8442 25.043 28.4744 25.9097 27.6344C26.5513 27.0126 26.8942 26.6328 27.3915 25.888C27.855 25.1938 28.01 24.7398 28.3831 23.9919C28.6783 23.4005 28.8804 23.0842 29.116 22.4661C29.5293 21.3818 29.6318 20.7171 29.7573 19.5619C29.8818 18.4155 29.7573 16.6086 29.7573 16.6086C29.7573 16.6086 29.6151 14.808 29.313 13.7001C29.0477 12.7271 28.8328 12.1942 28.3873 11.2911C28.0596 10.6269 27.4364 9.65152 27.4364 9.65152C27.4364 9.65152 27.0286 8.93855 26.7035 8.52875C26.3452 8.07712 26.0997 7.86038 25.6743 7.47293C25.2681 7.10303 25.0325 6.90111 24.5828 6.58693C23.9371 6.13588 23.5357 5.93715 22.8207 5.61036C22.0434 5.25514 20.7622 4.87203 20.7622 4.87203L20.6614 3.47756L30.0871 3.56616L31.5427 0.365723Z" fill="#6C5739"/>
<path fill-rule="evenodd" clip-rule="evenodd" d="M0.446777 0.334473H13.6199L13.0105 6.02493L12.9949 6.03175L12.9847 6.00266C12.9949 6.03175 12.9949 6.03175 12.9949 6.03175L12.9947 6.03182L12.9856 6.03584C12.9795 6.03854 12.9704 6.04253 12.9588 6.04773C12.9354 6.05812 12.9014 6.0733 12.8591 6.09243C12.7745 6.13069 12.6566 6.18477 12.5233 6.248C12.2565 6.37456 11.929 6.53741 11.6837 6.68342C11.6465 6.70556 11.6101 6.72718 11.5745 6.74836C10.9456 7.12198 10.5494 7.35735 10.0352 7.91907C9.66025 8.32869 9.48122 8.65387 9.25092 9.07218C9.18409 9.19355 9.11296 9.32276 9.03146 9.46415C8.82781 9.81748 8.7176 10.0179 8.53778 10.3837C8.03945 11.3976 7.79323 11.9951 7.52568 13.093C7.34075 13.8518 7.29387 14.3375 7.22623 15.0385C7.21558 15.1488 7.20441 15.2645 7.19211 15.3874C7.05163 16.7915 7.00365 17.5892 7.08322 18.9969C7.14644 20.1153 7.21333 20.7453 7.44119 21.8408C7.64886 22.8391 7.79459 23.3976 8.15653 24.3489C8.19571 24.4519 8.2325 24.5499 8.26779 24.6438C8.52967 25.3411 8.70856 25.8174 9.16666 26.4868C9.60304 27.1243 9.91681 27.4373 10.4904 27.9552C10.9888 28.4052 11.2776 28.6582 11.8595 28.9852C12.524 29.3587 12.9429 29.497 13.6848 29.6717C14.5272 29.87 15.0579 29.8608 15.8683 29.8467C15.945 29.8454 16.0241 29.844 16.1063 29.8428L16.165 29.8419C17.0273 29.8289 17.5377 29.8213 18.3912 29.6224C18.9394 29.4947 19.2494 29.4145 19.7604 29.1811C20.4987 28.8439 20.8747 28.5545 21.4831 28.0107C22.0534 27.5009 22.3385 27.1662 22.7719 26.533C23.2496 25.8352 23.5772 24.9706 23.7904 24.408C23.849 24.2534 23.8989 24.1216 23.9409 24.0224C24.133 23.569 24.2661 23.0893 24.3367 22.597C24.361 22.4273 24.4168 22.1661 24.4843 21.8509C24.5158 21.7035 24.5499 21.5443 24.5844 21.3772C24.6931 20.851 24.8072 20.243 24.8651 19.6658C24.9992 18.3271 24.9753 17.5642 24.8961 16.2193C24.8665 15.7166 24.8146 15.2349 24.7736 14.8533C24.7601 14.7279 24.7477 14.6132 24.7377 14.5122C24.7178 14.3111 24.6402 13.9138 24.5499 13.5178C24.4597 13.1219 24.3577 12.731 24.2898 12.5427C24.2454 12.4195 24.1965 12.27 24.1418 12.1028C24.0259 11.7479 23.8839 11.3134 23.7032 10.8825C23.3957 10.1495 23.212 9.73916 22.7949 9.06582C22.7435 8.9829 22.6955 8.90424 22.6495 8.82902C22.3433 8.32804 22.1303 7.97956 21.6604 7.54172C21.3503 7.25278 21.1241 7.10884 20.8051 6.90577C20.7473 6.86894 20.6864 6.83017 20.6214 6.78824C20.3151 6.59074 19.9039 6.36974 19.5686 6.19787C19.4011 6.112 19.2528 6.0385 19.1464 5.98648C19.0931 5.96047 19.0504 5.93982 19.021 5.92569C19.0063 5.91862 18.9949 5.91318 18.9872 5.90951L18.9784 5.90535L18.9755 5.90397C18.9755 5.90397 18.9755 5.90395 18.9864 5.87518L18.9755 5.90397L18.9605 5.89687L18.3654 0.334473H31.5884L30.1042 3.59757L20.6918 3.5091L20.7886 4.84759C20.7921 4.84866 20.7961 4.84987 20.8005 4.85122C20.8079 4.85345 20.8165 4.85606 20.8262 4.85904C20.8628 4.87023 20.916 4.8866 20.9821 4.90735C21.1145 4.94886 21.2991 5.00791 21.5081 5.07806C21.9257 5.2183 22.4414 5.40323 22.8313 5.58144C23.547 5.90853 23.9501 6.10804 24.5977 6.56045C25.0487 6.87555 25.2853 7.07833 25.692 7.44872C25.7135 7.46825 25.7344 7.48735 25.755 7.50607C26.1426 7.85869 26.3827 8.07715 26.7245 8.50804C26.8882 8.71439 27.0722 8.99634 27.2149 9.226C27.2863 9.34097 27.3476 9.44311 27.391 9.5165C27.4127 9.5532 27.4299 9.58273 27.4417 9.60309C27.4477 9.61327 27.4522 9.62116 27.4553 9.62651L27.4588 9.6326L27.4593 9.63356L27.4597 9.6341L27.4597 9.63416L27.461 9.63622L27.4663 9.64455C27.471 9.65188 27.4779 9.6627 27.4867 9.67671C27.5044 9.70472 27.5301 9.74547 27.5619 9.79643C27.6255 9.89836 27.7137 10.0412 27.8122 10.2048C28.0091 10.5318 28.2474 10.9426 28.4118 11.276C28.8581 12.1807 29.0739 12.7155 29.3398 13.691C29.4915 14.2474 29.6028 14.9766 29.6762 15.5655C29.7129 15.8602 29.7401 16.1202 29.7582 16.3066C29.7673 16.3998 29.774 16.4745 29.7785 16.526C29.7807 16.5518 29.7824 16.5717 29.7835 16.5852C29.7841 16.592 29.7845 16.5971 29.7848 16.6006L29.7851 16.6045L29.7852 16.6055L29.7852 16.6058L29.7852 16.6058C29.7852 16.6058 29.7852 16.6059 29.7573 16.6086L29.7852 16.6058L29.7852 16.6062L29.7852 16.6063L29.7853 16.6066L29.7856 16.6115C29.7858 16.615 29.7862 16.6201 29.7866 16.6269C29.7875 16.6405 29.7888 16.6605 29.7904 16.6863C29.7935 16.7381 29.7979 16.8133 29.8028 16.907C29.8125 17.0946 29.8242 17.3566 29.832 17.6544C29.8476 18.2498 29.8477 18.99 29.7851 19.5657C29.6595 20.7222 29.5565 21.3902 29.1418 22.4783C28.9741 22.9183 28.8227 23.2071 28.6439 23.5482C28.5708 23.6878 28.493 23.8361 28.4076 24.0072C28.2996 24.2238 28.2096 24.4161 28.125 24.5972C27.9186 25.0387 27.7437 25.4128 27.414 25.9067C26.9152 26.6538 26.5707 27.0352 25.9281 27.658C25.059 28.5003 24.4716 28.8714 23.4433 29.4988C22.612 30.006 22.1311 30.2835 21.225 30.6403C20.2306 31.032 19.6406 31.199 18.5848 31.3571C17.8687 31.4642 17.3788 31.4627 16.7746 31.4609C16.5699 31.4603 16.3521 31.4596 16.108 31.4632C15.9421 31.4655 15.7947 31.4696 15.6562 31.4733C15.2583 31.4841 14.9341 31.4929 14.4567 31.4557C14.0204 31.4217 13.4694 31.323 13.0283 31.2329C12.8075 31.1879 12.614 31.145 12.4757 31.1134C12.4065 31.0975 12.3511 31.0845 12.313 31.0755C12.2939 31.0709 12.2792 31.0674 12.2692 31.065L12.2579 31.0622L12.2541 31.0613C12.2541 31.0613 12.254 31.0613 12.26 31.0308L12.254 31.0613L12.2528 31.061L10.1436 30.3219L10.1427 30.3214L10.153 30.2924C10.1427 30.3214 10.1427 30.3215 10.1427 30.3214L10.1426 30.3214L10.1424 30.3213L10.1418 30.321L10.1289 30.3153C10.1198 30.3112 10.1065 30.3052 10.0892 30.2974C10.0548 30.2819 10.0047 30.2591 9.94246 30.2304C9.81793 30.1731 9.64443 30.0919 9.44852 29.9968C9.05695 29.8065 8.57493 29.5599 8.21555 29.3352C7.41161 28.8326 6.99062 28.4936 6.28778 27.8555C5.56876 27.2028 5.16004 26.8213 4.58887 26.0297C3.98565 25.1936 3.73621 24.6537 3.33625 23.7035C3.00418 22.9146 2.85537 22.4519 2.64756 21.6209C2.40797 20.6629 2.32876 20.1073 2.24586 19.1233C2.16211 18.1292 2.1571 17.5631 2.22567 16.5678C2.28467 15.7113 2.33915 15.2272 2.52135 14.3877C2.78031 13.1946 3.00349 12.53 3.52278 11.4272C3.71536 11.0182 4.00455 10.5184 4.24514 10.1214C4.36553 9.92284 4.4739 9.74972 4.55219 9.62626C4.59133 9.56452 4.62295 9.51519 4.6448 9.48129C4.65572 9.46433 4.6642 9.45123 4.66995 9.44237L4.6765 9.43229L4.67817 9.42972L4.67871 9.4289C4.67871 9.42889 4.67874 9.42884 4.70138 9.44724C4.68078 9.42608 4.68078 9.42607 4.6808 9.42605L4.68085 9.42599L4.68499 9.42099C4.68777 9.41764 4.6919 9.41267 4.69733 9.40616C4.70819 9.39313 4.72426 9.37393 4.7451 9.3492C4.7868 9.29975 4.84763 9.2282 4.92422 9.13971C5.0774 8.96274 5.29365 8.718 5.54598 8.44688C6.0503 7.90501 6.70003 7.25638 7.27876 6.83333C7.97622 6.32349 8.97105 5.84854 9.79007 5.50141C10.1999 5.32773 10.5662 5.18582 10.83 5.08734C10.962 5.03809 11.0683 4.9997 11.1417 4.97361C11.1784 4.96056 11.2068 4.95059 11.2261 4.94388C11.2301 4.9425 11.2336 4.94127 11.2368 4.94016L11.2993 3.59673L1.90817 3.69505L0.446777 0.334473ZM4.70138 9.44724L4.6808 9.42605L4.67969 9.4274L4.67874 9.42884L4.70138 9.44724ZM4.72307 9.4671L4.723 9.46717L4.72182 9.46902L4.71532 9.47902C4.7096 9.48783 4.70116 9.50087 4.69027 9.51777C4.6685 9.55156 4.63696 9.60076 4.5979 9.66236C4.51979 9.78555 4.41165 9.9583 4.29153 10.1565C4.05114 10.5531 3.76342 11.0505 3.57235 11.4563C3.05522 12.5545 2.83366 13.2143 2.57579 14.4024C2.39447 15.2378 2.34035 15.7184 2.28151 16.5726C2.21319 17.5644 2.21817 18.1269 2.30162 19.1175C2.38427 20.0985 2.46298 20.6504 2.70151 21.6041C2.90855 22.4321 3.05632 22.8915 3.38695 23.6769C3.78605 24.6251 4.03328 25.16 4.6325 25.9905C5.19985 26.7768 5.60483 27.155 6.32312 27.8071C7.02408 28.4434 7.4424 28.7802 8.24292 29.2807C8.59973 29.5038 9.0796 29.7494 9.47088 29.9395C9.66639 30.0344 9.83955 30.1154 9.96383 30.1727C10.026 30.2013 10.0759 30.224 10.1102 30.2395C10.1274 30.2473 10.1407 30.2532 10.1497 30.2573L10.1599 30.2618L10.1625 30.263L12.267 31.0005L12.2672 31.0005L12.2811 31.0039C12.291 31.0063 12.3057 31.0098 12.3247 31.0143C12.3627 31.0234 12.4179 31.0363 12.4869 31.0521C12.625 31.0837 12.8181 31.1265 13.0383 31.1715C13.4791 31.2614 14.0275 31.3596 14.4606 31.3934C14.9352 31.4304 15.2562 31.4217 15.6532 31.4109C15.792 31.4071 15.9401 31.4031 16.1072 31.4007C16.3531 31.3971 16.5719 31.3978 16.777 31.3984C17.38 31.4002 17.8654 31.4017 18.5773 31.2951C19.6291 31.1377 20.2153 30.9717 21.2064 30.5814C22.1084 30.2262 22.5863 29.9505 23.4165 29.444C24.4439 28.8171 25.027 28.4486 25.8914 27.6108C26.5319 26.99 26.8733 26.6118 27.3691 25.8693C27.696 25.3797 27.8681 25.0114 28.0736 24.5719C28.1585 24.3902 28.2491 24.1964 28.3587 23.9767C28.4453 23.8033 28.5236 23.6538 28.5971 23.5138C28.7751 23.1742 28.924 22.89 29.0903 22.4538C29.5021 21.3734 29.6042 20.7119 29.7295 19.5582C29.7915 18.9874 29.7916 18.251 29.776 17.6563C29.7683 17.3591 29.7566 17.0977 29.7469 16.9107C29.742 16.8171 29.7376 16.7422 29.7345 16.6906C29.7329 16.6648 29.7316 16.6449 29.7308 16.6314C29.7303 16.6249 29.73 16.6198 29.7298 16.6164L29.7297 16.6162L29.7295 16.6123L29.7294 16.6113L29.7294 16.6111L29.7293 16.6101L29.7285 16.6002L29.7278 16.591C29.7267 16.5776 29.725 16.5577 29.7227 16.5321C29.7183 16.4808 29.7115 16.4062 29.7025 16.3133C29.6845 16.1274 29.6573 15.8681 29.6207 15.5741C29.5474 14.9858 29.4366 14.2607 29.2862 13.7092C29.0216 12.7386 28.8075 12.2078 28.3628 11.3062C28.1996 10.9753 27.9624 10.5664 27.7657 10.2396C27.6675 10.0764 27.5794 9.93386 27.5159 9.83215C27.4842 9.7813 27.4586 9.74066 27.4409 9.71274C27.4321 9.69878 27.4253 9.688 27.4206 9.68071L27.414 9.67035L27.4137 9.66983L27.4136 9.6697C27.4136 9.66969 27.4136 9.66966 27.4364 9.65152L27.4136 9.6697L27.4132 9.66901L27.4128 9.66832L27.4127 9.66821L27.4125 9.66783L27.4082 9.66031C27.4051 9.65502 27.4006 9.64719 27.3947 9.63707C27.383 9.61685 27.3658 9.58747 27.3442 9.55092C27.301 9.47783 27.24 9.37611 27.1689 9.26162C27.0264 9.03235 26.844 8.75292 26.6826 8.54947C26.3438 8.12243 26.1068 7.90678 25.7191 7.55403C25.6987 7.53546 25.6779 7.51652 25.6566 7.49715C25.251 7.12773 25.0163 6.92667 24.5679 6.61342C23.9242 6.16372 23.5245 5.96577 22.8101 5.63928C22.4228 5.46227 21.9092 5.27804 21.4919 5.13791C21.2834 5.06789 21.0991 5.00895 20.967 4.96752C20.9009 4.94681 20.8479 4.93048 20.8114 4.91932C20.7932 4.91375 20.779 4.90947 20.7695 4.90658L20.7587 4.90331L20.7552 4.90228L20.755 4.90223C20.755 4.90223 20.755 4.90221 20.7559 4.89833L20.755 4.90221L20.7359 4.89651L20.6311 3.44602L30.07 3.53475L31.4972 0.396973H18.4284L19.0123 5.85352C19.0199 5.85714 19.0302 5.86209 19.0431 5.86828C19.0726 5.88246 19.1155 5.90316 19.1688 5.92923C19.2755 5.98137 19.4241 6.05502 19.592 6.14108C19.9275 6.31308 20.3408 6.53508 20.6494 6.73412C20.7139 6.77576 20.7746 6.81436 20.8323 6.8511C21.1516 7.05436 21.3821 7.20104 21.6963 7.49374C22.1725 7.93741 22.3896 8.29279 22.696 8.79417C22.7419 8.86933 22.7899 8.94777 22.841 9.03028C23.2606 9.70773 23.4459 10.1216 23.7539 10.856C23.9356 11.2892 24.0796 11.7297 24.196 12.0858C24.2502 12.2518 24.2985 12.3994 24.3417 12.5194C24.4112 12.712 24.514 13.1065 24.6042 13.5024C24.6944 13.8983 24.773 14.2994 24.7934 14.5053C24.8033 14.6055 24.8156 14.7195 24.829 14.8445C24.8701 15.2263 24.9223 15.7106 24.952 16.2152C25.0312 17.5618 25.0554 18.3289 24.9207 19.6727C24.8625 20.2537 24.7478 20.8644 24.639 21.3912C24.604 21.5606 24.5696 21.721 24.538 21.869C24.4709 22.1823 24.4159 22.4396 24.392 22.6068C24.3206 23.1051 24.1859 23.5904 23.9916 24.0491C23.9507 24.1455 23.9017 24.2749 23.844 24.4274C23.6311 24.9893 23.2991 25.8658 22.8164 26.571C22.3804 27.2078 22.0922 27.5463 21.5181 28.0595C20.9072 28.6056 20.5265 28.8988 19.7816 29.2389C19.266 29.4744 18.9521 29.5556 18.4026 29.6836C17.5439 29.8837 17.0289 29.8914 16.1668 29.9044L16.1071 29.9053C16.0248 29.9065 15.9456 29.9079 15.8687 29.9092C15.0584 29.9233 14.522 29.9326 13.6733 29.7328C12.9282 29.5574 12.5043 29.4176 11.8343 29.041C11.247 28.711 10.9545 28.4546 10.4551 28.0038C9.87986 27.4844 9.56231 27.1678 9.12215 26.5247C8.65951 25.8487 8.47802 25.3654 8.21608 24.6678C8.1808 24.5739 8.14406 24.4761 8.10498 24.3733C7.74147 23.4179 7.59483 22.8558 7.38664 21.8549C7.15792 20.7553 7.09069 20.1218 7.02732 19.0008C6.94748 17.5883 6.99575 16.7868 7.13645 15.3805C7.14872 15.2579 7.15986 15.1424 7.1705 15.0321C7.23816 14.3309 7.28548 13.8404 7.47163 13.0766C7.74067 11.9726 7.98892 11.3704 8.48867 10.3537C8.66929 9.98618 8.78022 9.78451 8.98436 9.43034C9.06464 9.29105 9.13511 9.16304 9.2016 9.04224C9.43268 8.62243 9.61577 8.28982 9.99602 7.87441C10.516 7.30629 10.9186 7.06717 11.547 6.69386C11.583 6.67247 11.6198 6.65064 11.6573 6.62827C11.9049 6.4809 12.2344 6.31716 12.5014 6.19048C12.6351 6.12708 12.7533 6.07287 12.8381 6.03451C12.8805 6.01532 12.9146 6.0001 12.938 5.98967C12.9463 5.98598 12.9533 5.9829 12.9588 5.98045L13.5568 0.396973H0.536209L1.94309 3.63219L11.3583 3.53361L11.2907 4.98707L11.272 4.99347L11.2716 4.99216C11.272 4.99347 11.272 4.99346 11.272 4.99347L11.2701 4.9941L11.2646 4.996C11.2597 4.99768 11.2524 5.00021 11.2428 5.00355C11.2236 5.01022 11.1953 5.02015 11.1587 5.03316C11.0855 5.05917 10.9795 5.09747 10.8478 5.14661C10.5845 5.2449 10.2189 5.38652 9.80995 5.55984C8.99151 5.90672 8.00151 6.37971 7.30945 6.88561C6.73529 7.30532 6.08865 7.95057 5.58483 8.4919C5.33309 8.76238 5.11733 9.00657 4.96451 9.18313C4.8881 9.2714 4.82744 9.34276 4.78589 9.39203C4.76512 9.41667 4.74912 9.43578 4.73833 9.44873C4.73294 9.4552 4.72884 9.46013 4.7261 9.46344L4.72307 9.4671Z" fill="#95774C"/>
<path d="M16.0487 6.3125L11.3125 18.1932H20.7081L16.0487 6.3125Z" fill="#231F20"/>
<rect width="7.67669" height="2.59806" transform="translate(24.448 20.9612) rotate(66.6628)" fill="#95774C"/>
<rect width="6.25" height="1.25" transform="translate(24.375 30.25)" fill="#95774C"/>
<rect width="6.25" height="1.25" transform="translate(1.75 30.25)" fill="#95774C"/>
</g>
<defs>
<clipPath id="clip0_349_203">
<rect width="32" height="32" fill="white"/>
</clipPath>
</defs>
</svg>
