<svg width="101" height="25" viewBox="0 0 101 25" fill="none" xmlns="http://www.w3.org/2000/svg">
<path d="M0.828 10C0.604 10 0.432 9.904 0.312 9.712C0.192 9.52 0.18 9.316 0.276 9.1L3.648 1.048C3.768 0.768 3.964 0.628 4.236 0.628C4.524 0.628 4.72 0.768 4.824 1.048L8.208 9.124C8.296 9.348 8.28 9.552 8.16 9.736C8.048 9.912 7.876 10 7.644 10C7.524 10 7.408 9.968 7.296 9.904C7.192 9.832 7.116 9.736 7.068 9.616L4.092 2.224H4.428L1.404 9.616C1.348 9.744 1.264 9.84 1.152 9.904C1.048 9.968 0.94 10 0.828 10ZM1.464 7.936L1.944 6.904H6.648L7.128 7.936H1.464ZM9.2895 10C9.0655 10 8.8935 9.904 8.7735 9.712C8.6535 9.52 8.6415 9.316 8.7375 9.1L12.1095 1.048C12.2295 0.768 12.4255 0.628 12.6975 0.628C12.9855 0.628 13.1815 0.768 13.2855 1.048L16.6695 9.124C16.7575 9.348 16.7455 9.552 16.6335 9.736C16.5295 9.912 16.3615 10 16.1295 10C16.0095 10 15.8935 9.968 15.7815 9.904C15.6775 9.832 15.6015 9.736 15.5535 9.616L12.5535 2.224H12.9375L9.8655 9.616C9.8095 9.744 9.7255 9.84 9.6135 9.904C9.5095 9.968 9.4015 10 9.2895 10ZM18.7928 10C18.6168 10 18.4688 9.94 18.3488 9.82C18.2288 9.7 18.1688 9.552 18.1688 9.376V1.192C18.1688 1.024 18.2288 0.888 18.3488 0.784C18.4688 0.68 18.6168 0.628 18.7928 0.628C18.9768 0.628 19.1248 0.68 19.2368 0.784C19.3568 0.888 19.4168 1.024 19.4168 1.192V4.24H21.9128C22.5128 4.24 23.0448 4.36 23.5088 4.6C23.9728 4.84 24.3328 5.172 24.5888 5.596C24.8528 6.012 24.9848 6.496 24.9848 7.048C24.9848 7.624 24.8528 8.136 24.5888 8.584C24.3328 9.024 23.9728 9.372 23.5088 9.628C23.0448 9.876 22.5128 10 21.9128 10H18.7928ZM19.4168 8.848H21.9128C22.2808 8.848 22.6048 8.78 22.8848 8.644C23.1648 8.508 23.3848 8.308 23.5448 8.044C23.7048 7.772 23.7848 7.44 23.7848 7.048C23.7848 6.648 23.7048 6.324 23.5448 6.076C23.3848 5.82 23.1648 5.632 22.8848 5.512C22.6048 5.384 22.2808 5.32 21.9128 5.32H19.4168V8.848ZM30.7568 8.92C30.0928 8.92 29.4848 8.832 28.9328 8.656C28.3808 8.48 27.9008 8.232 27.4928 7.912C27.0928 7.584 26.7808 7.2 26.5568 6.76C26.3408 6.32 26.2328 5.836 26.2328 5.308C26.2328 4.78 26.3408 4.3 26.5568 3.868C26.7808 3.428 27.0928 3.048 27.4928 2.728C27.9008 2.4 28.3808 2.148 28.9328 1.972C29.4848 1.796 30.0928 1.708 30.7568 1.708C31.4208 1.708 32.0288 1.796 32.5808 1.972C33.1328 2.148 33.6088 2.4 34.0088 2.728C34.4168 3.048 34.7288 3.428 34.9448 3.868C35.1688 4.3 35.2808 4.78 35.2808 5.308C35.2808 5.836 35.1688 6.32 34.9448 6.76C34.7288 7.2 34.4168 7.584 34.0088 7.912C33.6088 8.232 33.1328 8.48 32.5808 8.656C32.0288 8.832 31.4208 8.92 30.7568 8.92ZM30.7568 7.912C31.4048 7.912 31.9768 7.804 32.4728 7.588C32.9768 7.372 33.3688 7.068 33.6488 6.676C33.9368 6.284 34.0808 5.828 34.0808 5.308C34.0808 4.788 33.9368 4.336 33.6488 3.952C33.3688 3.56 32.9768 3.256 32.4728 3.04C31.9768 2.824 31.4048 2.716 30.7568 2.716C30.1088 2.716 29.5328 2.824 29.0288 3.04C28.5328 3.256 28.1408 3.56 27.8528 3.952C27.5728 4.336 27.4328 4.788 27.4328 5.308C27.4328 5.828 27.5728 6.284 27.8528 6.676C28.1408 7.068 28.5328 7.372 29.0288 7.588C29.5328 7.804 30.1088 7.912 30.7568 7.912ZM30.7808 10C30.6048 10 30.4568 9.94 30.3368 9.82C30.2168 9.7 30.1568 9.552 30.1568 9.376V8.692L30.2168 8.188V2.476L30.1568 2.104V1.252C30.1568 1.068 30.2168 0.92 30.3368 0.808C30.4568 0.688 30.6048 0.628 30.7808 0.628C30.9648 0.628 31.1128 0.688 31.2248 0.808C31.3448 0.92 31.4048 1.068 31.4048 1.252V2.116L31.3448 2.476V8.188L31.4048 8.596V9.376C31.4048 9.552 31.3448 9.7 31.2248 9.82C31.1128 9.94 30.9648 10 30.7808 10ZM36.6288 10C36.4048 10 36.2328 9.904 36.1128 9.712C35.9928 9.52 35.9808 9.316 36.0768 9.1L39.4488 1.048C39.5688 0.768 39.7648 0.628 40.0368 0.628C40.3248 0.628 40.5208 0.768 40.6248 1.048L44.0088 9.124C44.0968 9.348 44.0808 9.552 43.9608 9.736C43.8488 9.912 43.6768 10 43.4448 10C43.3248 10 43.2088 9.968 43.0968 9.904C42.9928 9.832 42.9168 9.736 42.8688 9.616L39.8928 2.224H40.2288L37.2048 9.616C37.1488 9.744 37.0648 9.84 36.9528 9.904C36.8488 9.968 36.7408 10 36.6288 10ZM37.2648 7.936L37.7448 6.904H42.4488L42.9288 7.936H37.2648ZM45.2823 7.324C45.1063 7.324 44.9583 7.268 44.8383 7.156C44.7263 7.044 44.6703 6.9 44.6703 6.724C44.6703 6.54 44.7263 6.392 44.8383 6.28C44.9583 6.168 45.1063 6.112 45.2823 6.112H47.9583C48.1343 6.112 48.2783 6.168 48.3903 6.28C48.5023 6.392 48.5583 6.54 48.5583 6.724C48.5583 6.9 48.5023 7.044 48.3903 7.156C48.2783 7.268 48.1343 7.324 47.9583 7.324H45.2823ZM50.7498 10C50.5738 10 50.4258 9.94 50.3058 9.82C50.1858 9.7 50.1258 9.552 50.1258 9.376V1.252C50.1258 1.068 50.1858 0.92 50.3058 0.808C50.4258 0.688 50.5738 0.628 50.7498 0.628H53.1498C53.7498 0.628 54.2818 0.76 54.7458 1.024C55.2098 1.288 55.5698 1.656 55.8258 2.128C56.0898 2.592 56.2218 3.128 56.2218 3.736C56.2218 4.32 56.0898 4.84 55.8258 5.296C55.5698 5.752 55.2098 6.108 54.7458 6.364C54.2818 6.62 53.7498 6.748 53.1498 6.748H51.3738V9.376C51.3738 9.552 51.3138 9.7 51.1938 9.82C51.0818 9.94 50.9338 10 50.7498 10ZM51.3738 5.596H53.1498C53.5178 5.596 53.8418 5.516 54.1218 5.356C54.4018 5.196 54.6218 4.976 54.7818 4.696C54.9418 4.416 55.0218 4.096 55.0218 3.736C55.0218 3.352 54.9418 3.016 54.7818 2.728C54.6218 2.432 54.4018 2.2 54.1218 2.032C53.8418 1.864 53.5178 1.78 53.1498 1.78H51.3738V5.596ZM58.2503 10C58.0743 10 57.9223 9.94 57.7943 9.82C57.6663 9.7 57.6023 9.552 57.6023 9.376V1.252C57.6023 1.068 57.6663 0.92 57.7943 0.808C57.9223 0.688 58.0743 0.628 58.2503 0.628C58.4343 0.628 58.5783 0.688 58.6823 0.808C58.7943 0.92 58.8503 1.068 58.8503 1.252V8.056L64.6103 0.856C64.7383 0.704 64.8983 0.628 65.0903 0.628C65.2743 0.628 65.4223 0.688 65.5343 0.808C65.6543 0.92 65.7143 1.068 65.7143 1.252V9.376C65.7143 9.552 65.6543 9.7 65.5343 9.82C65.4223 9.94 65.2743 10 65.0903 10C64.9143 10 64.7663 9.94 64.6463 9.82C64.5263 9.7 64.4663 9.552 64.4663 9.376V2.584L58.7303 9.784C58.6743 9.848 58.6023 9.9 58.5143 9.94C58.4263 9.98 58.3383 10 58.2503 10ZM70.8861 10C70.7101 10 70.5621 9.94 70.4421 9.82C70.3221 9.7 70.2621 9.552 70.2621 9.376V0.628H71.5101V9.376C71.5101 9.552 71.4501 9.7 71.3301 9.82C71.2101 9.94 71.0621 10 70.8861 10ZM67.6701 1.78C67.5021 1.78 67.3621 1.728 67.2501 1.624C67.1461 1.512 67.0941 1.372 67.0941 1.204C67.0941 1.036 67.1461 0.9 67.2501 0.796C67.3621 0.684 67.5021 0.628 67.6701 0.628H74.0901C74.2581 0.628 74.3941 0.684 74.4981 0.796C74.6101 0.9 74.6661 1.036 74.6661 1.204C74.6661 1.372 74.6101 1.512 74.4981 1.624C74.3941 1.728 74.2581 1.78 74.0901 1.78H67.6701ZM77.1877 10.108C76.8197 10.108 76.4677 10 76.1317 9.784C75.9797 9.688 75.8837 9.564 75.8437 9.412C75.8117 9.26 75.8397 9.116 75.9277 8.98C76.0157 8.836 76.1397 8.752 76.2997 8.728C76.4597 8.696 76.6277 8.728 76.8037 8.824C76.8597 8.856 76.9237 8.884 76.9957 8.908C77.0677 8.924 77.1317 8.932 77.1877 8.932C77.4037 8.932 77.6237 8.832 77.8477 8.632C78.0797 8.424 78.2837 8.136 78.4597 7.768L81.7597 0.999999C81.9357 0.648 82.1957 0.548 82.5397 0.7C82.8837 0.852 82.9677 1.108 82.7917 1.468L79.4917 8.248C79.2037 8.832 78.8637 9.288 78.4717 9.616C78.0797 9.944 77.6517 10.108 77.1877 10.108ZM78.9397 8.104L74.9317 1.528C74.7397 1.2 74.8157 0.936 75.1597 0.736C75.4957 0.543999 75.7637 0.615999 75.9637 0.952L79.7197 7.492L78.9397 8.104ZM84.1014 10C83.8774 10 83.7054 9.904 83.5854 9.712C83.4654 9.52 83.4534 9.316 83.5494 9.1L86.9214 1.048C87.0414 0.768 87.2374 0.628 87.5094 0.628C87.7974 0.628 87.9934 0.768 88.0974 1.048L91.4814 9.124C91.5694 9.348 91.5534 9.552 91.4334 9.736C91.3214 9.912 91.1494 10 90.9174 10C90.7974 10 90.6814 9.968 90.5694 9.904C90.4654 9.832 90.3894 9.736 90.3414 9.616L87.3654 2.224H87.7014L84.6774 9.616C84.6214 9.744 84.5374 9.84 84.4254 9.904C84.3214 9.968 84.2134 10 84.1014 10ZM84.7374 7.936L85.2174 6.904H89.9214L90.4014 7.936H84.7374ZM92.5629 10C92.3389 10 92.1669 9.904 92.0469 9.712C91.9269 9.52 91.9149 9.316 92.0109 9.1L95.3829 1.048C95.5029 0.768 95.6989 0.628 95.9709 0.628C96.2589 0.628 96.4549 0.768 96.5589 1.048L99.9429 9.124C100.031 9.348 100.019 9.552 99.9069 9.736C99.8029 9.912 99.6349 10 99.4029 10C99.2829 10 99.1669 9.968 99.0549 9.904C98.9509 9.832 98.8749 9.736 98.8269 9.616L95.8269 2.224H96.2109L93.1389 9.616C93.0829 9.744 92.9989 9.84 92.8869 9.904C92.7829 9.968 92.6749 10 92.5629 10Z" fill="#D5CEBF"/>
<path d="M5.63 22C5.54333 22 5.47 21.9733 5.41 21.92C5.35667 21.86 5.33 21.7867 5.33 21.7V19.01C5.33 18.57 5.24333 18.2067 5.07 17.92C4.90333 17.6333 4.67333 17.42 4.38 17.28C4.09333 17.1333 3.76667 17.06 3.4 17.06C3.04 17.06 2.71667 17.13 2.43 17.27C2.14333 17.4033 1.91667 17.59 1.75 17.83C1.58333 18.07 1.5 18.34 1.5 18.64H1C1.02667 18.2267 1.15 17.8567 1.37 17.53C1.59 17.1967 1.87667 16.9367 2.23 16.75C2.58333 16.5567 2.97333 16.46 3.4 16.46C3.88 16.46 4.31 16.56 4.69 16.76C5.07667 16.9533 5.38 17.24 5.6 17.62C5.82 17.9933 5.93 18.4567 5.93 19.01V21.7C5.93 21.7867 5.9 21.86 5.84 21.92C5.78667 21.9733 5.71667 22 5.63 22ZM1.2 22C1.11333 22 1.04 21.9733 0.98 21.92C0.926667 21.86 0.9 21.7867 0.9 21.7V16.83C0.9 16.7367 0.926667 16.6633 0.98 16.61C1.04 16.5567 1.11333 16.53 1.2 16.53C1.29333 16.53 1.36667 16.5567 1.42 16.61C1.47333 16.6633 1.5 16.7367 1.5 16.83V21.7C1.5 21.7867 1.47333 21.86 1.42 21.92C1.36667 21.9733 1.29333 22 1.2 22ZM10.1285 22.06C9.59518 22.06 9.11518 21.94 8.68852 21.7C8.26852 21.4533 7.93518 21.12 7.68852 20.7C7.44852 20.2733 7.32852 19.7967 7.32852 19.27C7.32852 18.7367 7.44852 18.26 7.68852 17.84C7.93518 17.4133 8.26852 17.08 8.68852 16.84C9.11518 16.5933 9.59518 16.47 10.1285 16.47C10.6618 16.47 11.1385 16.5933 11.5585 16.84C11.9785 17.08 12.3085 17.4133 12.5485 17.84C12.7952 18.26 12.9185 18.7367 12.9185 19.27C12.9185 19.7967 12.7952 20.2733 12.5485 20.7C12.3085 21.12 11.9785 21.4533 11.5585 21.7C11.1385 21.94 10.6618 22.06 10.1285 22.06ZM10.1285 21.5C10.5485 21.5 10.9218 21.4033 11.2485 21.21C11.5818 21.01 11.8418 20.7433 12.0285 20.41C12.2218 20.07 12.3185 19.6867 12.3185 19.26C12.3185 18.84 12.2218 18.4633 12.0285 18.13C11.8418 17.79 11.5818 17.5233 11.2485 17.33C10.9218 17.13 10.5485 17.03 10.1285 17.03C9.71518 17.03 9.34185 17.13 9.00852 17.33C8.67518 17.5233 8.41185 17.79 8.21852 18.13C8.02518 18.4633 7.92852 18.8433 7.92852 19.27C7.92852 19.69 8.02518 20.07 8.21852 20.41C8.41185 20.7433 8.67518 21.01 9.00852 21.21C9.34185 21.4033 9.71518 21.5 10.1285 21.5ZM17.7176 22C17.6376 22 17.5742 21.9867 17.5276 21.96C17.4809 21.9267 17.4309 21.8767 17.3776 21.81L15.6576 19.53L15.4076 19.34L13.6576 17.03C13.6042 16.9633 13.5809 16.8933 13.5876 16.82C13.5942 16.74 13.6242 16.6733 13.6776 16.62C13.7309 16.56 13.8009 16.53 13.8876 16.53C13.9742 16.53 14.0476 16.56 14.1076 16.62L15.7776 18.84L16.0476 19.05L17.8976 21.51C17.9842 21.6167 18.0142 21.7067 17.9876 21.78C17.9676 21.8533 17.9276 21.91 17.8676 21.95C17.8076 21.9833 17.7576 22 17.7176 22ZM13.6676 22C13.5809 22 13.5109 21.9733 13.4576 21.92C13.4042 21.8667 13.3742 21.8033 13.3676 21.73C13.3609 21.65 13.3842 21.5767 13.4376 21.51L15.3776 19.1L15.7276 19.54L13.8776 21.91C13.8376 21.97 13.7676 22 13.6676 22ZM15.9176 19.38L15.5576 18.94L17.3776 16.71C17.4309 16.65 17.4809 16.6067 17.5276 16.58C17.5809 16.5467 17.6342 16.53 17.6876 16.53C17.7809 16.53 17.8509 16.56 17.8976 16.62C17.9442 16.6733 17.9676 16.74 17.9676 16.82C17.9676 16.8933 17.9409 16.9633 17.8876 17.03L15.9176 19.38ZM21.3395 22.06C20.8061 22.06 20.3261 21.94 19.8995 21.7C19.4795 21.4533 19.1461 21.12 18.8995 20.7C18.6595 20.2733 18.5395 19.7967 18.5395 19.27C18.5395 18.7367 18.6595 18.26 18.8995 17.84C19.1461 17.4133 19.4795 17.08 19.8995 16.84C20.3261 16.5933 20.8061 16.47 21.3395 16.47C21.8728 16.47 22.3495 16.5933 22.7695 16.84C23.1895 17.08 23.5195 17.4133 23.7595 17.84C24.0061 18.26 24.1295 18.7367 24.1295 19.27C24.1295 19.7967 24.0061 20.2733 23.7595 20.7C23.5195 21.12 23.1895 21.4533 22.7695 21.7C22.3495 21.94 21.8728 22.06 21.3395 22.06ZM21.3395 21.5C21.7595 21.5 22.1328 21.4033 22.4595 21.21C22.7928 21.01 23.0528 20.7433 23.2395 20.41C23.4328 20.07 23.5295 19.6867 23.5295 19.26C23.5295 18.84 23.4328 18.4633 23.2395 18.13C23.0528 17.79 22.7928 17.5233 22.4595 17.33C22.1328 17.13 21.7595 17.03 21.3395 17.03C20.9261 17.03 20.5528 17.13 20.2195 17.33C19.8861 17.5233 19.6228 17.79 19.4295 18.13C19.2361 18.4633 19.1395 18.8433 19.1395 19.27C19.1395 19.69 19.2361 20.07 19.4295 20.41C19.6228 20.7433 19.8861 21.01 20.2195 21.21C20.5528 21.4033 20.9261 21.5 21.3395 21.5ZM25.9266 24.34C25.8399 24.34 25.7666 24.31 25.7066 24.25C25.6532 24.1967 25.6266 24.1267 25.6266 24.04V19.21C25.6399 18.6833 25.7666 18.2167 26.0066 17.81C26.2532 17.3967 26.5866 17.07 27.0066 16.83C27.4266 16.59 27.8966 16.47 28.4166 16.47C28.9499 16.47 29.4266 16.5933 29.8466 16.84C30.2732 17.08 30.6066 17.4133 30.8466 17.84C31.0932 18.26 31.2166 18.7367 31.2166 19.27C31.2166 19.7967 31.0932 20.2733 30.8466 20.7C30.6066 21.12 30.2732 21.4533 29.8466 21.7C29.4266 21.94 28.9499 22.06 28.4166 22.06C27.9366 22.06 27.5032 21.9567 27.1166 21.75C26.7366 21.5433 26.4399 21.2667 26.2266 20.92V24.04C26.2266 24.1267 26.1999 24.1967 26.1466 24.25C26.0932 24.31 26.0199 24.34 25.9266 24.34ZM28.4166 21.5C28.8366 21.5 29.2099 21.4033 29.5366 21.21C29.8699 21.01 30.1332 20.7433 30.3266 20.41C30.5199 20.07 30.6166 19.69 30.6166 19.27C30.6166 18.8433 30.5199 18.4633 30.3266 18.13C30.1332 17.79 29.8699 17.5233 29.5366 17.33C29.2099 17.13 28.8366 17.03 28.4166 17.03C28.0032 17.03 27.6299 17.13 27.2966 17.33C26.9632 17.5233 26.6999 17.79 26.5066 18.13C26.3199 18.4633 26.2266 18.8433 26.2266 19.27C26.2266 19.69 26.3199 20.07 26.5066 20.41C26.6999 20.7433 26.9632 21.01 27.2966 21.21C27.6299 21.4033 28.0032 21.5 28.4166 21.5ZM35.2164 22.06C34.6831 22.06 34.2031 21.94 33.7764 21.7C33.3564 21.4533 33.0231 21.12 32.7764 20.7C32.5364 20.2733 32.4164 19.7967 32.4164 19.27C32.4164 18.7367 32.5364 18.26 32.7764 17.84C33.0231 17.4133 33.3564 17.08 33.7764 16.84C34.2031 16.5933 34.6831 16.47 35.2164 16.47C35.7497 16.47 36.2264 16.5933 36.6464 16.84C37.0664 17.08 37.3964 17.4133 37.6364 17.84C37.8831 18.26 38.0064 18.7367 38.0064 19.27C38.0064 19.7967 37.8831 20.2733 37.6364 20.7C37.3964 21.12 37.0664 21.4533 36.6464 21.7C36.2264 21.94 35.7497 22.06 35.2164 22.06ZM35.2164 21.5C35.6364 21.5 36.0097 21.4033 36.3364 21.21C36.6697 21.01 36.9297 20.7433 37.1164 20.41C37.3097 20.07 37.4064 19.6867 37.4064 19.26C37.4064 18.84 37.3097 18.4633 37.1164 18.13C36.9297 17.79 36.6697 17.5233 36.3364 17.33C36.0097 17.13 35.6364 17.03 35.2164 17.03C34.8031 17.03 34.4297 17.13 34.0964 17.33C33.7631 17.5233 33.4997 17.79 33.3064 18.13C33.1131 18.4633 33.0164 18.8433 33.0164 19.27C33.0164 19.69 33.1131 20.07 33.3064 20.41C33.4997 20.7433 33.7631 21.01 34.0964 21.21C34.4297 21.4033 34.8031 21.5 35.2164 21.5ZM44.2335 22C44.1468 22 44.0735 21.9733 44.0135 21.92C43.9602 21.86 43.9335 21.7867 43.9335 21.7V16.83C43.9335 16.7367 43.9602 16.6633 44.0135 16.61C44.0735 16.5567 44.1468 16.53 44.2335 16.53C44.3268 16.53 44.4002 16.5567 44.4535 16.61C44.5068 16.6633 44.5335 16.7367 44.5335 16.83V21.7C44.5335 21.7867 44.5068 21.86 44.4535 21.92C44.4002 21.9733 44.3268 22 44.2335 22ZM39.8035 22C39.7168 22 39.6435 21.9733 39.5835 21.92C39.5302 21.86 39.5035 21.7867 39.5035 21.7V16.83C39.5035 16.7367 39.5302 16.6633 39.5835 16.61C39.6435 16.5567 39.7168 16.53 39.8035 16.53C39.8968 16.53 39.9702 16.5567 40.0235 16.61C40.0768 16.6633 40.1035 16.7367 40.1035 16.83V21.7C40.1035 21.7867 40.0768 21.86 40.0235 21.92C39.9702 21.9733 39.8968 22 39.8035 22ZM39.9735 19.57V19.03H44.1835V19.57H39.9735ZM51.0597 22C50.973 22 50.8997 21.9733 50.8397 21.92C50.7864 21.86 50.7597 21.7867 50.7597 21.7V16.83C50.7597 16.7367 50.7864 16.6633 50.8397 16.61C50.8997 16.5567 50.973 16.53 51.0597 16.53C51.153 16.53 51.2264 16.5567 51.2797 16.61C51.333 16.6633 51.3597 16.7367 51.3597 16.83V21.7C51.3597 21.7867 51.333 21.86 51.2797 21.92C51.2264 21.9733 51.153 22 51.0597 22ZM46.6297 22C46.543 22 46.4697 21.9733 46.4097 21.92C46.3564 21.86 46.3297 21.7867 46.3297 21.7V16.83C46.3297 16.7367 46.3564 16.6633 46.4097 16.61C46.4697 16.5567 46.543 16.53 46.6297 16.53C46.723 16.53 46.7964 16.5567 46.8497 16.61C46.903 16.6633 46.9297 16.7367 46.9297 16.83V21.7C46.9297 21.7867 46.903 21.86 46.8497 21.92C46.7964 21.9733 46.723 22 46.6297 22ZM46.7997 19.57V19.03H51.0097V19.57H46.7997ZM55.5859 22.07C55.1059 22.07 54.6759 21.9733 54.2959 21.78C53.9159 21.58 53.6125 21.29 53.3859 20.91C53.1659 20.53 53.0559 20.0667 53.0559 19.52V16.83C53.0559 16.7433 53.0825 16.6733 53.1359 16.62C53.1959 16.56 53.2692 16.53 53.3559 16.53C53.4425 16.53 53.5125 16.56 53.5659 16.62C53.6259 16.6733 53.6559 16.7433 53.6559 16.83V19.52C53.6559 19.9533 53.7392 20.3167 53.9059 20.61C54.0792 20.8967 54.3092 21.1133 54.5959 21.26C54.8892 21.4 55.2192 21.47 55.5859 21.47C55.9459 21.47 56.2692 21.4 56.5559 21.26C56.8425 21.12 57.0692 20.9333 57.2359 20.7C57.4025 20.46 57.4859 20.19 57.4859 19.89H57.9859C57.9592 20.3033 57.8359 20.6767 57.6159 21.01C57.3959 21.3367 57.1092 21.5967 56.7559 21.79C56.4092 21.9767 56.0192 22.07 55.5859 22.07ZM57.7859 22C57.6992 22 57.6259 21.9733 57.5659 21.92C57.5125 21.86 57.4859 21.7867 57.4859 21.7V16.83C57.4859 16.7367 57.5125 16.6633 57.5659 16.61C57.6259 16.5567 57.6992 16.53 57.7859 16.53C57.8792 16.53 57.9525 16.5567 58.0059 16.61C58.0592 16.6633 58.0859 16.7367 58.0859 16.83V21.7C58.0859 21.7867 58.0592 21.86 58.0059 21.92C57.9525 21.9733 57.8792 22 57.7859 22ZM62.3144 22.07C61.8344 22.07 61.4044 21.9733 61.0244 21.78C60.6444 21.58 60.341 21.29 60.1144 20.91C59.8944 20.53 59.7844 20.0667 59.7844 19.52V16.83C59.7844 16.7433 59.811 16.6733 59.8644 16.62C59.9244 16.56 59.9977 16.53 60.0844 16.53C60.171 16.53 60.241 16.56 60.2944 16.62C60.3544 16.6733 60.3844 16.7433 60.3844 16.83V19.52C60.3844 19.9533 60.4677 20.3167 60.6344 20.61C60.8077 20.8967 61.0377 21.1133 61.3244 21.26C61.6177 21.4 61.9477 21.47 62.3144 21.47C62.6744 21.47 62.9977 21.4 63.2844 21.26C63.571 21.12 63.7977 20.9333 63.9644 20.7C64.131 20.46 64.2144 20.19 64.2144 19.89H64.7144C64.6877 20.3033 64.5644 20.6767 64.3444 21.01C64.1244 21.3367 63.8377 21.5967 63.4844 21.79C63.1377 21.9767 62.7477 22.07 62.3144 22.07ZM64.5144 22C64.4277 22 64.3544 21.9733 64.2944 21.92C64.241 21.86 64.2144 21.7867 64.2144 21.7V16.83C64.2144 16.7367 64.241 16.6633 64.2944 16.61C64.3544 16.5567 64.4277 16.53 64.5144 16.53C64.6077 16.53 64.681 16.5567 64.7344 16.61C64.7877 16.6633 64.8144 16.7367 64.8144 16.83V21.7C64.8144 21.7867 64.7877 21.86 64.7344 21.92C64.681 21.9733 64.6077 22 64.5144 22ZM62.3544 15.83C62.041 15.83 61.7577 15.7767 61.5044 15.67C61.251 15.5633 61.051 15.42 60.9044 15.24C60.7644 15.0533 60.6944 14.8433 60.6944 14.61C60.6944 14.5167 60.721 14.4433 60.7744 14.39C60.8344 14.33 60.9077 14.3 60.9944 14.3C61.081 14.3 61.151 14.3333 61.2044 14.4C61.2644 14.46 61.2944 14.5467 61.2944 14.66C61.2944 14.8533 61.3944 15.0067 61.5944 15.12C61.801 15.2333 62.0544 15.29 62.3544 15.29C62.6544 15.29 62.9044 15.2333 63.1044 15.12C63.311 15.0067 63.4144 14.8533 63.4144 14.66C63.4144 14.5467 63.441 14.46 63.4944 14.4C63.5544 14.3333 63.6277 14.3 63.7144 14.3C63.801 14.3 63.871 14.33 63.9244 14.39C63.9844 14.4433 64.0144 14.5167 64.0144 14.61C64.0144 14.8433 63.941 15.0533 63.7944 15.24C63.6544 15.42 63.4577 15.5633 63.2044 15.67C62.9577 15.7767 62.6744 15.83 62.3544 15.83ZM72.0426 22.06C71.4959 22.06 71.0126 21.94 70.5926 21.7C70.1726 21.46 69.8426 21.13 69.6026 20.71C69.3626 20.29 69.2426 19.81 69.2426 19.27C69.2426 18.7233 69.3659 18.24 69.6126 17.82C69.8592 17.4 70.1926 17.07 70.6126 16.83C71.0392 16.59 71.5159 16.47 72.0426 16.47C72.5892 16.47 73.0692 16.59 73.4826 16.83C73.9026 17.07 74.2326 17.4 74.4726 17.82C74.7126 18.24 74.8326 18.7233 74.8326 19.27L74.4826 19.67C74.4826 20.1367 74.3792 20.55 74.1726 20.91C73.9659 21.27 73.6792 21.5533 73.3126 21.76C72.9459 21.96 72.5226 22.06 72.0426 22.06ZM72.0826 24.09C71.5292 24.09 71.0559 23.9867 70.6626 23.78C70.2759 23.5733 69.9559 23.31 69.7026 22.99C69.6492 22.9233 69.6226 22.8533 69.6226 22.78C69.6226 22.7067 69.6559 22.6467 69.7226 22.6C69.7892 22.5467 69.8659 22.5267 69.9526 22.54C70.0459 22.5533 70.1159 22.5967 70.1626 22.67C70.3692 22.9167 70.6326 23.12 70.9526 23.28C71.2726 23.4467 71.6492 23.53 72.0826 23.53C72.4959 23.53 72.8626 23.43 73.1826 23.23C73.5092 23.03 73.7659 22.7533 73.9526 22.4C74.1392 22.0533 74.2326 21.6633 74.2326 21.23V19.64L74.5026 19.27H74.8326V21.23C74.8326 21.77 74.7126 22.2567 74.4726 22.69C74.2326 23.1233 73.9059 23.4633 73.4926 23.71C73.0792 23.9633 72.6092 24.09 72.0826 24.09ZM72.0426 21.5C72.4692 21.5 72.8459 21.4067 73.1726 21.22C73.5059 21.0267 73.7659 20.7633 73.9526 20.43C74.1392 20.09 74.2326 19.7033 74.2326 19.27C74.2326 18.83 74.1392 18.4433 73.9526 18.11C73.7659 17.77 73.5059 17.5067 73.1726 17.32C72.8459 17.1267 72.4692 17.03 72.0426 17.03C71.6159 17.03 71.2359 17.1267 70.9026 17.32C70.5692 17.5067 70.3092 17.77 70.1226 18.11C69.9359 18.4433 69.8426 18.83 69.8426 19.27C69.8426 19.7033 69.9359 20.09 70.1226 20.43C70.3092 20.7633 70.5692 21.0267 70.9026 21.22C71.2359 21.4067 71.6159 21.5 72.0426 21.5ZM76.8297 22C76.743 22 76.6697 21.9733 76.6097 21.92C76.5564 21.86 76.5297 21.7867 76.5297 21.7V16.83C76.5297 16.7367 76.5564 16.6633 76.6097 16.61C76.6697 16.5567 76.743 16.53 76.8297 16.53C76.923 16.53 76.9964 16.5567 77.0497 16.61C77.103 16.6633 77.1297 16.7367 77.1297 16.83V21.7C77.1297 21.7867 77.103 21.86 77.0497 21.92C76.9964 21.9733 76.923 22 76.8297 22ZM76.8197 15.38C76.693 15.38 76.583 15.3367 76.4897 15.25C76.403 15.1567 76.3597 15.0433 76.3597 14.91C76.3597 14.7567 76.4064 14.6433 76.4997 14.57C76.5997 14.49 76.7097 14.45 76.8297 14.45C76.943 14.45 77.0464 14.49 77.1397 14.57C77.2397 14.6433 77.2897 14.7567 77.2897 14.91C77.2897 15.0433 77.243 15.1567 77.1497 15.25C77.063 15.3367 76.953 15.38 76.8197 15.38ZM79.4324 22C79.3391 22 79.2658 21.9733 79.2124 21.92C79.1591 21.8667 79.1324 21.7933 79.1324 21.7V16.83C79.1324 16.73 79.1591 16.6567 79.2124 16.61C79.2658 16.5567 79.3391 16.53 79.4324 16.53C79.5791 16.53 79.6958 16.5967 79.7824 16.73L82.0824 20.07L84.3824 16.73C84.4691 16.5967 84.5858 16.53 84.7324 16.53C84.8258 16.53 84.8991 16.5567 84.9524 16.61C85.0058 16.6567 85.0324 16.73 85.0324 16.83V21.7C85.0324 21.7933 85.0058 21.8667 84.9524 21.92C84.8991 21.9733 84.8258 22 84.7324 22C84.6324 22 84.5558 21.9733 84.5024 21.92C84.4558 21.8667 84.4324 21.7933 84.4324 21.7V17.13L84.6824 17.21L82.3324 20.64C82.2658 20.7267 82.1824 20.77 82.0824 20.77C81.9824 20.77 81.8991 20.7267 81.8324 20.64L79.4724 17.25L79.7324 17.17V21.7C79.7324 21.8 79.7058 21.8767 79.6524 21.93C79.6058 21.9767 79.5324 22 79.4324 22Z" fill="#D5CEBF"/>
</svg>
