<svg width="200" height="200" viewBox="0 0 200 200" fill="none" xmlns="http://www.w3.org/2000/svg">
<path d="M98.4375 2.34375L79.1016 49.0234L59.5703 95.8984L19.5312 189.258H9.375V197.07L48.4375 197.266V189.258C43.8273 189.258 40.625 189.258 40.625 189.258L42.7734 182.812L60.9375 136.719L107.031 23.6328L98.4375 2.34375Z" fill="#95774C"/>
<path d="M195.833 3.125H113.807L117.486 37.4641C117.486 37.4641 123.938 40.5148 127.775 42.9864C130.411 44.6852 131.982 45.561 134.282 47.7018C137.677 50.8611 138.943 53.2881 141.393 57.2399C144.004 61.4495 145.155 64.0181 147.075 68.5912C148.735 72.5455 149.882 76.5739 150.739 78.9485C151.596 81.323 153.294 88.7382 153.546 91.2753C153.797 93.8125 154.289 97.7546 154.534 101.924C155.029 110.312 155.179 115.08 154.34 123.439C153.616 130.658 151.485 138.631 151.042 141.718C150.599 144.805 149.764 147.812 148.558 150.655C147.353 153.498 145.059 160.772 141.245 166.338C138.532 170.296 136.743 172.394 133.173 175.582C129.369 178.978 127.008 180.794 122.381 182.905C119.178 184.366 117.232 184.869 113.807 185.666C108.344 186.937 105.122 186.959 99.517 187.043C93.5877 187.133 90.145 187.331 84.3693 185.973C79.7301 184.882 77.1009 184.015 72.9371 181.678C69.2896 179.63 67.4761 178.043 64.363 175.235C60.7789 172.003 58.8093 170.041 56.0747 166.05C52.8151 161.292 51.8066 158.083 49.7498 152.683C47.4865 146.741 46.5743 143.249 45.2769 137.018C43.8525 130.177 43.434 126.24 43.0391 119.261C42.5418 110.472 42.842 105.488 43.7193 96.7301C44.283 91.1023 44.4658 87.892 45.8057 82.3999C47.4797 75.538 49.0224 71.7994 52.1363 65.4711C53.2608 63.1858 53.9507 61.9328 55.223 59.728C57.4743 55.8262 58.4738 53.3781 61.5107 50.0641C64.9211 46.3424 67.5107 44.9025 71.8368 42.3299C74.9117 40.5013 80.0365 38.2587 80.0365 38.2587L83.8034 3.125H2.08325L11.0318 23.68L69.7047 23.0664L69.2988 31.7824C69.2988 31.7824 53.1995 37.2681 44.5294 43.599C37.3357 48.8517 28.3516 59.728 28.3516 59.728C28.3516 59.728 23.546 67.081 21.1522 72.1592C17.9187 79.0185 16.5312 83.1456 14.9188 90.5667C13.7846 95.7863 13.4458 98.7927 13.0782 104.124C12.6511 110.316 12.6823 113.834 13.2039 120.019C13.7204 126.142 14.2131 129.593 15.7047 135.551C16.999 140.721 17.9243 143.595 19.9918 148.501C22.4847 154.417 24.0343 157.767 27.7857 162.96C31.3377 167.878 33.8763 170.245 38.3605 174.311C42.7401 178.283 45.3586 180.389 50.3643 183.515C54.8331 186.306 62.3681 189.651 62.3681 189.651L75.5151 194.253C75.5151 194.253 83.8091 196.285 89.2337 196.707C93.24 197.019 95.505 196.811 99.5227 196.753C105.555 196.666 108.989 196.986 114.956 196.094C121.532 195.111 125.201 194.073 131.396 191.636C137.037 189.417 140.028 187.693 145.211 184.534C151.625 180.625 155.277 178.32 160.685 173.084C164.688 169.209 166.828 166.842 169.931 162.199C172.823 157.873 173.79 155.042 176.118 150.382C177.96 146.695 179.221 144.724 180.691 140.871C183.27 134.113 183.91 129.97 184.693 122.771C185.47 115.625 184.693 104.363 184.693 104.363C184.693 104.363 183.805 93.1405 181.92 86.2348C180.265 80.1703 178.924 76.8494 176.144 71.2204C174.1 67.0803 170.211 61.0012 170.211 61.0012C170.211 61.0012 167.666 56.5574 165.638 54.0033C163.402 51.1883 161.871 49.8374 159.216 47.4226C156.681 45.1171 155.211 43.8585 152.405 41.9004C148.377 39.089 145.872 37.8504 141.41 35.8136C136.56 33.5996 128.566 31.2117 128.566 31.2117L127.937 22.5203L186.75 23.0726L195.833 3.125Z" fill="#B88B4B"/>
<path d="M112.109 83.0078L131.897 128.389L145.117 158.594L158.398 189.062H150.586V196.875H189.648V189.062H179.492L98.4375 2.34375L88.0859 27.9297" fill="#95774C"/>
<path d="M54.0061 110.547L47.6562 125.781H151.562L145.02 110.547H99.0056H76.2103H54.0061Z" fill="#95774C"/>
</svg>
