<svg width="40" height="40" viewBox="0 0 40 40" fill="none" xmlns="http://www.w3.org/2000/svg">
<g filter="url(#filter0_i_689_2848)">
<rect width="40" height="40" rx="20" fill="#EAE6DE"/>
<g clip-path="url(#clip0_689_2848)">
<path d="M19.666 26C22.9797 26 25.666 23.3137 25.666 20C25.666 16.6863 22.9797 14 19.666 14C16.3523 14 13.666 16.6863 13.666 20C13.666 23.3137 16.3523 26 19.666 26Z" stroke="#866929" stroke-width="2"/>
<path d="M19.666 10V11M19.666 29V30M29.666 20H28.666M10.666 20H9.66602M26.736 12.93L26.344 13.323M12.988 26.678L12.595 27.071M26.736 27.07L26.344 26.677M12.988 13.322L12.595 12.929" stroke="#866929" stroke-width="2" stroke-linecap="round"/>
</g>
</g>
<defs>
<filter id="filter0_i_689_2848" x="0" y="0" width="40" height="42" filterUnits="userSpaceOnUse" color-interpolation-filters="sRGB">
<feFlood flood-opacity="0" result="BackgroundImageFix"/>
<feBlend mode="normal" in="SourceGraphic" in2="BackgroundImageFix" result="shape"/>
<feColorMatrix in="SourceAlpha" type="matrix" values="0 0 0 0 0 0 0 0 0 0 0 0 0 0 0 0 0 0 127 0" result="hardAlpha"/>
<feOffset dy="2"/>
<feGaussianBlur stdDeviation="2"/>
<feComposite in2="hardAlpha" operator="arithmetic" k2="-1" k3="1"/>
<feColorMatrix type="matrix" values="0 0 0 0 0 0 0 0 0 0 0 0 0 0 0 0 0 0 0.15 0"/>
<feBlend mode="normal" in2="shape" result="effect1_innerShadow_689_2848"/>
</filter>
<clipPath id="clip0_689_2848">
<rect width="20" height="20" fill="white" transform="translate(9.66602 10)"/>
</clipPath>
</defs>
</svg>
