<svg width="192" height="192" viewBox="0 0 192 192" fill="none" xmlns="http://www.w3.org/2000/svg">
<path d="M94.5 2.25L75.9375 47.0625L57.1875 92.0625L18.75 181.687H9V189.187L46.5 189.375V181.687C42.0742 181.687 39 181.687 39 181.687L41.0625 175.5L58.5 131.25L102.75 22.6875L94.5 2.25Z" fill="#95774C"/>
<path d="M188 3H109.255L112.786 35.9656C112.786 35.9656 118.981 38.8942 122.664 41.2669C125.195 42.8978 126.703 43.7386 128.911 45.7937C132.17 48.8266 133.385 51.1566 135.737 54.9503C138.243 58.9915 139.349 61.4573 141.192 65.8476C142.786 69.6436 143.886 73.511 144.709 75.7905C145.533 78.0701 147.162 85.1887 147.404 87.6243C147.645 90.06 148.117 93.8444 148.353 97.8471C148.828 105.899 148.972 110.476 148.167 118.502C147.471 125.432 145.425 133.086 145 136.049C144.575 139.013 143.773 141.9 142.616 144.629C141.459 147.358 139.257 154.341 135.595 159.684C132.991 163.484 131.274 165.498 127.847 168.558C124.194 171.819 121.928 173.562 117.486 175.589C114.411 176.991 112.543 177.474 109.255 178.239C104.011 179.46 100.918 179.48 95.5364 179.562C89.8443 179.648 86.5393 179.837 80.9946 178.534C76.541 177.487 74.0169 176.654 70.0197 174.41C66.5181 172.445 64.7771 170.921 61.7886 168.226C58.3478 165.122 56.457 163.239 53.8317 159.408C50.7026 154.841 49.7344 151.759 47.7599 146.575C45.5871 140.871 44.7115 137.519 43.4659 131.537C42.0985 124.97 41.6968 121.19 41.3176 114.49C40.8402 106.053 41.1284 101.269 41.9706 92.8609C42.5118 87.4582 42.6872 84.3763 43.9735 79.1039C45.5806 72.5165 47.0616 68.9274 50.0509 62.8523C51.1304 60.6584 51.7928 59.4555 53.0141 57.3389C55.1755 53.5932 56.1349 51.243 59.0503 48.0615C62.3243 44.4887 64.8104 43.1064 68.9634 40.6367C71.9153 38.8812 76.8352 36.7284 76.8352 36.7284L80.4514 3H2L10.5906 22.7328L66.9166 22.1438L66.527 30.5111C66.527 30.5111 51.0716 35.7774 42.7483 41.855C35.8423 46.8977 27.2176 57.3389 27.2176 57.3389C27.2176 57.3389 22.6042 64.3978 20.3061 69.2728C17.202 75.8578 15.87 79.8198 14.3221 86.944C13.2333 91.9549 12.9081 94.841 12.5551 99.9588C12.1451 105.904 12.1751 109.28 12.6758 115.218C13.1716 121.096 13.6446 124.41 15.0766 130.129C16.3191 135.092 17.2074 137.851 19.1922 142.561C21.5854 148.24 23.073 151.456 26.6743 156.442C30.0842 161.163 32.5213 163.436 36.8261 167.339C41.0306 171.152 43.5443 173.174 48.3498 176.175C52.6399 178.854 59.8734 182.065 59.8734 182.065L72.4946 186.483C72.4946 186.483 80.4568 188.433 85.6645 188.839C89.5105 189.139 91.6849 188.939 95.5419 188.883C101.333 188.8 104.629 189.106 110.358 188.25C116.671 187.306 120.193 186.31 126.14 183.971C131.555 181.84 134.427 180.185 139.403 177.152C145.56 173.4 149.066 171.187 154.258 166.161C158.101 162.441 160.155 160.168 163.134 155.711C165.91 151.558 166.839 148.84 169.074 144.366C170.842 140.827 172.052 138.935 173.464 135.236C175.939 128.749 176.553 124.771 177.305 117.86C178.051 111 177.305 100.189 177.305 100.189C177.305 100.189 176.453 89.4149 174.644 82.7854C173.054 76.9635 171.767 73.7754 169.098 68.3716C167.136 64.3971 163.402 58.5611 163.402 58.5611C163.402 58.5611 160.96 54.2951 159.013 51.8431C156.866 49.1408 155.396 47.8439 152.847 45.5257C150.414 43.3124 149.003 42.1042 146.309 40.2243C142.442 37.5255 140.037 36.3364 135.754 34.3811C131.098 32.2556 123.424 29.9633 123.424 29.9633L122.82 21.6195L179.28 22.1497L188 3Z" fill="#6C5739"/>
<path d="M107.625 79.6875L126.621 123.253L139.312 152.25L152.062 181.5H144.562V189H182.062V181.5H172.312L94.5 2.25L84.5625 26.8125" fill="#95774C"/>
<path d="M51.8458 106.125L45.75 120.75H145.5L139.219 106.125H95.0454H73.1619H51.8458Z" fill="#95774C"/>
</svg>
