<svg width="150" height="150" viewBox="0 0 150 150" fill="none" xmlns="http://www.w3.org/2000/svg">
<rect width="150" height="150" fill="#231F20"/>
<path d="M29.0883 147.363L49.3881 95.9985H100.241L122.527 147.363H135.645L75.0849 1.75781C54.8425 50.293 34.5994 98.8281 14.3555 147.363" fill="#95774C"/>
<path d="M147.857 1.71436H86.2358L88.9991 27.5399C88.9991 27.5399 93.8466 29.8343 96.7286 31.6931C98.7096 32.9707 99.8894 33.6294 101.618 35.2394C104.168 37.6154 105.118 39.4407 106.959 42.4128C108.92 45.5787 109.785 47.5104 111.228 50.9498C112.475 53.9237 113.336 56.9533 113.98 58.7392C114.625 60.525 115.9 66.1018 116.089 68.0099C116.278 69.918 116.647 72.8828 116.832 76.0185C117.203 82.3267 117.316 85.9125 116.686 92.1996C116.142 97.6288 114.541 103.625 114.208 105.946C113.875 108.268 113.248 110.53 112.342 112.668C111.437 114.806 109.714 120.276 106.848 124.463C104.81 127.439 103.466 129.017 100.784 131.414C97.9265 133.969 96.153 135.335 92.6771 136.922C90.2708 138.021 88.8086 138.399 86.2358 138.999C82.1318 139.955 79.7114 139.971 75.5004 140.034C71.0461 140.102 68.4598 140.251 64.1209 139.229C60.6357 138.409 58.6605 137.757 55.5325 135.999C52.7923 134.459 51.43 133.265 49.0913 131.154C46.3988 128.723 44.9191 127.247 42.8647 124.246C40.416 120.668 39.6584 118.254 38.1132 114.193C36.413 109.724 35.7277 107.098 34.7531 102.412C33.6829 97.2669 33.3686 94.3059 33.0719 89.0571C32.6983 82.4474 32.9239 78.6991 33.5829 72.1123C34.0064 67.8798 34.1437 65.4654 35.1503 61.3349C36.4079 56.1743 37.5668 53.3626 39.9061 48.6032C40.7508 46.8845 41.2692 45.9422 42.2249 44.284C43.9162 41.3495 44.6671 39.5084 46.9485 37.016C49.5106 34.217 51.456 33.1341 54.7059 31.1993C57.0159 29.8241 60.8659 28.1375 60.8659 28.1375L63.6957 1.71436H2.3042L9.02671 17.1732L53.1042 16.7118L52.7993 23.2668C52.7993 23.2668 40.7048 27.3925 34.1914 32.1538C28.7873 36.1042 22.038 44.284 22.038 44.284C22.038 44.284 18.4279 49.814 16.6295 53.6332C14.2004 58.7919 13.1581 61.8958 11.9467 67.4769C11.0947 71.4025 10.8402 73.6635 10.564 77.6729C10.2432 82.3301 10.2666 84.9753 10.6585 89.627C11.0465 94.2323 11.4166 96.828 12.5372 101.309C13.5095 105.197 14.2046 107.358 15.7578 111.048C17.6306 115.497 18.7947 118.016 21.6129 121.922C24.2813 125.621 26.1884 127.401 29.5571 130.459C32.8473 133.446 34.8144 135.03 38.5749 137.381C41.932 139.48 47.5926 141.996 47.5926 141.996L57.4692 145.457C57.4692 145.457 63.6999 146.985 67.7752 147.302C70.7848 147.537 72.4864 147.381 75.5047 147.337C80.0361 147.272 82.6158 147.512 87.0989 146.841C92.0388 146.102 94.7956 145.321 99.4489 143.489C103.687 141.819 105.934 140.523 109.828 138.147C114.646 135.207 117.389 133.474 121.452 129.536C124.46 126.622 126.067 124.841 128.398 121.35C130.571 118.096 131.297 115.968 133.047 112.462C134.43 109.69 135.377 108.207 136.482 105.31C138.419 100.227 138.899 97.1113 139.488 91.6966C140.072 86.3226 139.488 77.8528 139.488 77.8528C139.488 77.8528 138.821 69.4126 137.405 64.219C136.162 59.6581 135.154 57.1605 133.066 52.9271C131.53 49.8134 128.608 45.2415 128.608 45.2415C128.608 45.2415 126.697 41.8995 125.173 39.9786C123.494 37.8615 122.343 36.8455 120.349 35.0294C118.445 33.2955 117.34 32.349 115.232 30.8763C112.206 28.762 110.324 27.8304 106.972 26.2986C103.329 24.6335 97.3233 22.8377 97.3233 22.8377L96.851 16.3011L141.034 16.7164L147.857 1.71436Z" fill="#6C5739"/>
<path fill-rule="evenodd" clip-rule="evenodd" d="M2.09473 1.56787H63.8437L60.987 28.2419L60.914 28.2739L60.866 28.1375C60.914 28.2739 60.914 28.2739 60.914 28.2739L60.9133 28.2742L60.8705 28.293C60.8418 28.3057 60.7994 28.3244 60.7446 28.3488C60.6351 28.3975 60.4759 28.4686 60.2777 28.5583C59.8812 28.7377 59.3284 28.9911 58.7036 29.2875C57.453 29.8808 55.9174 30.6441 54.7678 31.3285C54.5934 31.4324 54.4229 31.5337 54.2558 31.6329C51.3077 33.3843 49.4507 34.4876 47.0404 37.1207C45.2829 39.0408 44.4437 40.5651 43.3641 42.5258C43.0509 43.0948 42.7174 43.7005 42.3354 44.3632C41.3808 46.0195 40.8642 46.9587 40.0213 48.6737C37.6854 53.4262 36.5312 56.227 35.2771 61.3733C34.4102 64.9305 34.1905 67.2071 33.8734 70.4928C33.8235 71.0101 33.7711 71.5523 33.7135 72.1285C33.055 78.7102 32.8301 82.4495 33.203 89.0478C33.4994 94.2907 33.8129 97.2435 34.8811 102.379C35.8545 107.058 36.5376 109.676 38.2342 114.136C38.4179 114.618 38.5903 115.077 38.7557 115.518C39.9833 118.786 40.8218 121.019 42.9692 124.157C45.0147 127.145 46.4855 128.612 49.174 131.04C51.5106 133.15 52.8642 134.335 55.5917 135.868C58.7067 137.619 60.6705 138.267 64.1481 139.086C68.0969 140.015 70.5845 139.972 74.3833 139.907C74.7426 139.9 75.1136 139.894 75.4988 139.888L75.7739 139.884C79.8161 139.823 82.2085 139.787 86.2091 138.855C88.7791 138.256 90.2322 137.88 92.6275 136.786C96.088 135.206 97.8506 133.849 100.703 131.3C103.376 128.911 104.712 127.341 106.744 124.374C108.983 121.102 110.519 117.049 111.518 114.412C111.793 113.688 112.027 113.07 112.224 112.605C113.124 110.48 113.748 108.231 114.079 105.923C114.192 105.128 114.454 103.904 114.77 102.426C114.918 101.735 115.078 100.989 115.24 100.205C115.749 97.7389 116.284 94.8893 116.555 92.1833C117.184 85.9084 117.072 82.3323 116.701 76.0281C116.562 73.6716 116.319 71.4136 116.127 69.625C116.063 69.0369 116.005 68.4995 115.959 68.026C115.865 67.0833 115.501 65.2211 115.078 63.3648C114.655 61.5087 114.177 59.6767 113.859 58.7939C113.651 58.2166 113.421 57.5156 113.165 56.7318C112.622 55.0682 111.956 53.0314 111.109 51.0119C109.668 47.5758 108.807 45.6523 106.852 42.4961C106.611 42.1074 106.385 41.7387 106.17 41.386C104.735 39.0377 103.736 37.4042 101.534 35.3518C100.08 33.9974 99.0198 33.3227 97.5245 32.3708C97.2533 32.1982 96.9678 32.0164 96.6631 31.8199C95.2276 30.8941 93.2999 29.8582 91.7284 29.0526C90.9432 28.65 90.248 28.3055 89.749 28.0616C89.4996 27.9397 89.2992 27.843 89.1613 27.7767C89.0923 27.7436 89.0389 27.7181 89.0028 27.7009L88.9618 27.6814L88.9482 27.6749C88.9482 27.6749 88.948 27.6748 88.9992 27.5399L88.9482 27.6749L88.8779 27.6416L86.0881 1.56787H148.071L141.114 16.8636L96.9935 16.4489L97.4469 22.7231C97.4634 22.7281 97.4821 22.7338 97.5029 22.7401C97.5374 22.7506 97.5776 22.7628 97.6233 22.7768C97.7949 22.8292 98.044 22.906 98.3543 23.0033C98.9748 23.1978 99.8401 23.4746 100.819 23.8035C102.777 24.4608 105.194 25.3277 107.022 26.163C110.377 27.6963 112.266 28.6315 115.302 30.7521C117.416 32.2291 118.525 33.1797 120.432 34.9159C120.532 35.0075 120.631 35.097 120.727 35.1847C122.544 36.8376 123.669 37.8617 125.272 39.8815C126.039 40.8487 126.901 42.1704 127.57 43.2469C127.905 43.7858 128.192 44.2646 128.396 44.6086C128.497 44.7807 128.578 44.9191 128.634 45.0145C128.661 45.0622 128.683 45.0992 128.697 45.1243L128.714 45.1529L128.716 45.1573L128.718 45.1599L128.718 45.1602L128.724 45.1698L128.749 45.2089C128.771 45.2432 128.803 45.2939 128.844 45.3596C128.927 45.4909 129.048 45.6819 129.197 45.9208C129.495 46.3986 129.909 47.0681 130.37 47.835C131.293 49.3678 132.41 51.2937 133.181 52.8565C135.273 57.0971 136.284 59.6041 137.531 64.1764C138.242 66.7848 138.764 70.2027 139.108 72.9634C139.28 74.3448 139.407 75.5636 139.492 76.4371C139.534 76.8739 139.566 77.2244 139.587 77.4659C139.598 77.5866 139.606 77.68 139.611 77.7433C139.613 77.7749 139.615 77.7991 139.617 77.8153L139.618 77.8337L139.619 77.8384L139.619 77.8396L139.619 77.8399C139.619 77.8399 139.619 77.84 139.488 77.8528L139.619 77.8399L139.619 77.8416L139.619 77.842L139.619 77.8432L139.62 77.8664C139.622 77.8826 139.623 77.9069 139.625 77.9386C139.629 78.0022 139.635 78.096 139.643 78.2173C139.658 78.4598 139.678 78.8122 139.701 79.2517C139.747 80.1308 139.801 81.3589 139.838 82.7552C139.911 85.5458 139.911 89.0158 139.618 91.7143C139.029 97.1354 138.547 100.266 136.603 105.367C135.817 107.43 135.107 108.783 134.269 110.382C133.926 111.036 133.561 111.732 133.161 112.534C132.655 113.549 132.233 114.451 131.836 115.299C130.869 117.369 130.049 119.123 128.503 121.438C126.165 124.94 124.551 126.728 121.538 129.647C117.465 133.595 114.711 135.335 109.891 138.276C105.994 140.653 103.74 141.954 99.4928 143.627C94.8316 145.462 92.066 146.246 87.1165 146.986C83.7602 147.488 81.4634 147.482 78.6315 147.473C77.672 147.47 76.651 147.467 75.5065 147.484C74.7289 147.495 74.038 147.514 73.3888 147.531C71.5239 147.582 70.004 147.623 67.7662 147.449C65.7209 147.289 63.1385 146.826 61.0705 146.404C60.0358 146.193 59.1287 145.992 58.4802 145.844C58.1559 145.77 57.8963 145.709 57.7177 145.666C57.6283 145.645 57.5593 145.628 57.5125 145.617L57.4593 145.604L57.4415 145.6C57.4414 145.6 57.4411 145.6 57.4693 145.457L57.4411 145.6L57.4355 145.598L47.5487 142.134L47.5442 142.132L47.5927 141.996C47.5442 142.132 47.5442 142.132 47.5442 142.132L47.5439 142.132L47.5431 142.131L47.54 142.13L47.4795 142.103C47.4371 142.084 47.3745 142.056 47.2937 142.019C47.1321 141.946 46.8976 141.84 46.6057 141.705C46.022 141.436 45.2087 141.056 44.2904 140.61C42.4549 139.718 40.1955 138.562 38.5108 137.509C34.7424 135.153 32.769 133.564 29.4744 130.573C26.104 127.513 24.1881 125.725 21.5108 122.014C18.6832 118.095 17.5139 115.564 15.6391 111.11C14.0826 107.412 13.385 105.243 12.4109 101.348C11.2878 96.8573 10.9165 94.2529 10.5279 89.6407C10.1354 84.9808 10.1119 82.3273 10.4333 77.6616C10.7099 73.6469 10.9652 71.3777 11.8193 67.4424C13.0332 61.8496 14.0793 58.7344 16.5135 53.565C17.4162 51.6478 18.7718 49.305 19.8996 47.4443C20.4639 46.5133 20.9719 45.7019 21.3388 45.1231C21.5223 44.8337 21.6706 44.6025 21.773 44.4435C21.8242 44.3641 21.8639 44.3027 21.8909 44.2611L21.9215 44.2139L21.9294 44.2018L21.9319 44.198C21.9319 44.198 21.9321 44.1977 22.0382 44.284C21.9416 44.1848 21.9416 44.1847 21.9417 44.1847L21.9419 44.1844L21.9614 44.1609C21.9744 44.1452 21.9937 44.1219 22.0192 44.0914C22.0701 44.0303 22.1454 43.9403 22.2431 43.8244C22.4386 43.5926 22.7237 43.2572 23.0828 42.8424C23.8008 42.0129 24.8145 40.8656 25.9973 39.5948C28.3613 37.0548 31.4068 34.0143 34.1196 32.0312C37.389 29.6414 42.0523 27.415 45.8914 25.7879C47.8123 24.9737 49.5294 24.3086 50.7662 23.8469C51.3847 23.6161 51.8832 23.4361 52.2272 23.3138C52.3991 23.2527 52.5325 23.2059 52.6229 23.1745C52.6415 23.168 52.6582 23.1622 52.6731 23.157L52.966 16.8597L8.94502 17.3206L2.09473 1.56787ZM22.0382 44.284L21.9417 44.1847L21.9365 44.1909L21.9321 44.1977L22.0382 44.284ZM22.1398 44.377L22.1395 44.3774L22.134 44.386L22.1035 44.4329C22.0767 44.4742 22.0371 44.5354 21.9861 44.6146C21.8841 44.773 21.7362 45.0036 21.5531 45.2923C21.187 45.8698 20.6801 46.6795 20.117 47.6084C18.9902 49.4676 17.6415 51.7993 16.7459 53.7013C14.3218 58.8493 13.2833 61.9419 12.0745 67.5114C11.2246 71.4273 10.9709 73.6802 10.695 77.6841C10.3748 82.3329 10.3981 84.9698 10.7893 89.6133C11.1767 94.2118 11.5457 96.7986 12.6638 101.269C13.6343 105.15 14.3269 107.304 15.8768 110.986C17.7476 115.43 18.9065 117.937 21.7153 121.83C24.3747 125.516 26.2731 127.289 29.6401 130.346C32.9258 133.328 34.8867 134.907 38.6392 137.253C40.3117 138.299 42.5611 139.45 44.3952 140.341C45.3117 140.786 46.1234 141.166 46.7059 141.434C46.9972 141.569 47.2311 141.675 47.3922 141.748C47.4728 141.784 47.5351 141.812 47.5772 141.831L47.6251 141.852L47.6373 141.858L57.5019 145.315L57.5031 145.315L57.5681 145.331C57.6146 145.342 57.6833 145.358 57.7724 145.38C57.9504 145.422 58.2094 145.483 58.5329 145.557C59.18 145.705 60.0853 145.906 61.1177 146.116C63.1839 146.538 65.7545 146.998 67.7845 147.156C70.0091 147.33 71.5139 147.289 73.3748 147.238C74.0254 147.221 74.7195 147.202 75.5031 147.191C76.6558 147.174 77.6812 147.177 78.6427 147.18C81.4691 147.188 83.7443 147.195 87.0816 146.696C92.0118 145.958 94.7598 145.18 99.4054 143.35C103.634 141.685 105.874 140.393 109.765 138.019C114.581 135.08 117.314 133.353 121.366 129.426C124.369 126.516 125.969 124.743 128.293 121.262C129.825 118.967 130.632 117.241 131.595 115.181C131.994 114.329 132.418 113.42 132.932 112.391C133.338 111.578 133.705 110.877 134.049 110.221C134.884 108.629 135.582 107.297 136.361 105.252C138.291 100.188 138.77 97.0871 139.358 91.679C139.648 89.0035 139.649 85.5516 139.576 82.7638C139.539 81.3709 139.485 80.1457 139.439 79.2687C139.416 78.8302 139.396 78.4789 139.381 78.2373C139.373 78.1164 139.367 78.023 139.363 77.9599C139.361 77.9291 139.36 77.9054 139.359 77.8894L139.359 77.8882L139.357 77.8701L139.357 77.8656L139.357 77.8644L139.357 77.8597L139.353 77.8133L139.349 77.7703C139.344 77.7074 139.336 77.6144 139.326 77.4942C139.305 77.2538 139.273 76.9043 139.231 76.4687C139.147 75.5974 139.019 74.3815 138.848 73.0037C138.504 70.2459 137.984 66.8469 137.28 64.2617C136.039 59.7121 135.036 57.2239 132.951 52.9978C132.186 51.4469 131.074 49.5299 130.152 47.9984C129.692 47.2331 129.279 46.565 128.981 46.0882C128.833 45.8499 128.713 45.6594 128.63 45.5285C128.589 45.463 128.556 45.4125 128.535 45.3784L128.504 45.3298L128.502 45.3274L128.502 45.3267C128.502 45.3267 128.502 45.3266 128.609 45.2415L128.502 45.3267L128.5 45.3235L128.498 45.3203L128.498 45.3198L128.497 45.318L128.476 45.2827C128.462 45.2579 128.441 45.2212 128.413 45.1738C128.358 45.079 128.278 44.9413 128.177 44.77C127.974 44.4274 127.688 43.9505 127.355 43.4138C126.687 42.3392 125.832 41.0293 125.075 40.0757C123.487 38.0739 122.376 37.0631 120.559 35.4095C120.463 35.3225 120.366 35.2337 120.266 35.1429C118.364 33.4113 117.264 32.4688 115.163 31.0004C112.145 28.8925 110.271 27.9646 106.923 26.4342C105.107 25.6044 102.7 24.7409 100.744 24.084C99.7664 23.7558 98.9026 23.4795 98.2833 23.2853C97.9736 23.1882 97.725 23.1116 97.554 23.0594C97.4684 23.0332 97.4023 23.0131 97.3575 22.9996L97.3067 22.9843L97.2905 22.9795L97.2897 22.9792C97.2897 22.9792 97.2895 22.9792 97.2939 22.9609L97.2895 22.9791L97.2001 22.9524L96.7087 16.1533L140.954 16.5692L147.643 1.86084H86.3838L89.1206 27.4384C89.1561 27.4554 89.2046 27.4786 89.265 27.5076C89.4035 27.5741 89.6043 27.6711 89.8543 27.7933C90.3544 28.0377 91.0511 28.3829 91.838 28.7863C93.4108 29.5926 95.3478 30.6332 96.7944 31.5662C97.097 31.7614 97.3813 31.9423 97.6519 32.1146C99.1488 33.0673 100.229 33.7549 101.702 35.1269C103.934 37.2067 104.952 38.8725 106.388 41.2227C106.603 41.575 106.828 41.9427 107.068 42.3295C109.035 45.505 109.903 47.445 111.347 50.8877C112.198 52.9181 112.873 54.983 113.419 56.6522C113.673 57.4301 113.899 58.1221 114.102 58.6845C114.428 59.5875 114.91 61.4368 115.333 63.2926C115.756 65.1481 116.124 67.0284 116.219 67.9938C116.266 68.4632 116.323 68.9977 116.387 69.5838C116.579 71.3733 116.824 73.6435 116.963 76.0089C117.334 82.3212 117.448 85.9165 116.816 92.2159C116.543 94.9391 116.006 97.8021 115.496 100.271C115.332 101.065 115.171 101.817 115.022 102.511C114.708 103.98 114.45 105.185 114.338 105.97C114.003 108.305 113.372 110.58 112.461 112.73C112.27 113.182 112.04 113.789 111.769 114.503C110.771 117.137 109.215 121.246 106.952 124.551C104.909 127.537 103.558 129.123 100.867 131.529C98.0027 134.089 96.2183 135.463 92.7269 137.058C90.3096 138.161 88.8383 138.542 86.2628 139.142C82.2373 140.08 79.8233 140.116 75.7823 140.177L75.5023 140.181C75.1168 140.187 74.7452 140.193 74.3852 140.199C70.5868 140.265 68.0723 140.309 64.0939 139.373C60.6012 138.55 58.6145 137.895 55.4736 136.13C52.7207 134.583 51.3496 133.381 49.0088 131.268C46.3123 128.833 44.8238 127.349 42.7606 124.335C40.5919 121.166 39.7412 118.9 38.5133 115.63C38.3479 115.19 38.1757 114.732 37.9925 114.25C36.2886 109.771 35.6012 107.137 34.6253 102.445C33.5532 97.2904 33.2381 94.3212 32.941 89.0663C32.5668 82.4454 32.793 78.688 33.4526 72.096C33.5101 71.5214 33.5623 70.98 33.6122 70.463C33.9293 67.176 34.1512 64.8771 35.0237 61.2965C36.2848 56.1215 37.4485 53.2989 39.7911 48.5328C40.6378 46.8103 41.1578 45.8649 42.1146 44.2047C42.491 43.5518 42.8213 42.9518 43.133 42.3855C44.2162 40.4177 45.0744 38.8586 46.8568 36.9113C49.2944 34.2483 51.1813 33.1274 54.1271 31.3775C54.2959 31.2772 54.4682 31.1749 54.6442 31.0701C55.8046 30.3793 57.349 29.6117 58.6009 29.0179C59.2274 28.7207 59.7815 28.4666 60.179 28.2868C60.3778 28.1969 60.5375 28.1255 60.6475 28.0766C60.6863 28.0593 60.719 28.0449 60.745 28.0334L63.548 1.86084H2.51394L9.10868 17.0259L53.2426 16.5638L52.9257 23.3769L52.8378 23.4069L52.8361 23.4008C52.8377 23.4069 52.8378 23.4069 52.8378 23.4069L52.8292 23.4099L52.8032 23.4188C52.7803 23.4267 52.746 23.4385 52.7011 23.4542C52.6112 23.4854 52.4783 23.532 52.3069 23.593C51.964 23.7149 51.4667 23.8944 50.8495 24.1248C49.6151 24.5855 47.9015 25.2493 45.9846 26.0618C42.1482 27.6878 37.5075 29.9049 34.2635 32.2763C31.5721 34.2437 28.541 37.2683 26.1793 39.8058C24.9993 41.0737 23.9879 42.2183 23.2716 43.0459C22.9134 43.4597 22.6291 43.7942 22.4343 44.0252C22.337 44.1407 22.262 44.2303 22.2114 44.2909C22.1861 44.3213 22.1669 44.3444 22.154 44.3599L22.1398 44.377Z" fill="#95774C"/>
<path d="M75.2282 29.5898L53.0273 85.2807H97.0693L75.2282 29.5898Z" fill="#231F20"/>
<rect width="35.9845" height="12.1784" transform="translate(114.6 98.2554) rotate(66.6628)" fill="#95774C"/>
<rect width="29.2969" height="5.85938" transform="translate(114.258 141.797)" fill="#95774C"/>
<rect width="29.2969" height="5.85938" transform="translate(8.20312 141.797)" fill="#95774C"/>
</svg>
