<svg width="512" height="512" viewBox="0 0 512 512" fill="none" xmlns="http://www.w3.org/2000/svg">
<g opacity="0.2">
<path d="M252 6L202.5 125.5L152.5 245.5L50 484.5H24V504.5L124 505V484.5C112.198 484.5 104 484.5 104 484.5L109.5 468L156 350L274 60.5L252 6Z" fill="#95774C"/>
<path d="M501.333 8H291.347L300.763 95.9082C300.763 95.9082 317.282 103.718 327.103 110.045C333.854 114.394 337.874 116.636 343.763 122.117C352.454 130.204 355.693 136.418 361.967 146.534C368.649 157.311 371.597 163.886 376.512 175.593C380.762 185.716 383.697 196.029 385.892 202.108C388.087 208.187 392.433 227.17 393.077 233.665C393.721 240.16 394.98 250.252 395.609 260.926C396.874 282.398 397.258 294.604 395.111 316.005C393.257 334.485 387.801 354.895 386.668 362.798C385.534 370.701 383.395 378.399 380.309 385.676C377.224 392.954 371.352 411.576 361.586 425.825C354.643 435.957 350.064 441.328 340.924 449.489C331.185 458.185 325.142 462.833 313.297 468.236C305.097 471.977 300.114 473.264 291.347 475.305C277.362 478.559 269.114 478.614 254.764 478.831C239.585 479.06 230.772 479.566 215.986 476.09C204.109 473.298 197.379 471.078 186.719 465.095C177.382 459.852 172.739 455.789 164.77 448.601C155.594 440.326 150.552 435.304 143.551 425.087C135.207 412.909 132.625 404.692 127.36 390.868C121.566 375.656 119.231 366.716 115.909 350.766C112.263 333.254 111.192 323.174 110.18 305.308C108.907 282.809 109.676 270.05 111.922 247.629C113.365 233.222 113.833 225.003 117.263 210.944C121.549 193.377 125.498 183.806 133.469 167.606C136.348 161.756 138.114 158.548 141.371 152.904C147.135 142.915 149.693 136.648 157.468 128.164C166.198 118.636 172.828 114.95 183.903 108.364C191.774 103.683 204.894 97.9424 204.894 97.9424L214.537 8H5.3335L28.2418 60.6208L178.444 59.0501L177.405 81.3629C177.405 81.3629 136.191 95.4065 113.996 111.613C95.5797 125.06 72.5804 152.904 72.5804 152.904C72.5804 152.904 60.2781 171.727 54.1499 184.728C45.8722 202.287 42.3202 212.853 38.1924 231.851C35.289 245.213 34.4217 252.909 33.4805 266.557C32.3872 282.41 32.467 291.414 33.8024 307.248C35.1245 322.924 36.3858 331.759 40.2044 347.012C43.5178 360.246 45.8865 367.603 51.1793 380.163C57.5613 395.308 61.5281 403.882 71.1317 417.178C80.2248 429.767 86.7237 435.828 98.2032 446.237C109.415 456.404 116.118 461.796 128.933 469.799C140.373 476.944 159.663 485.507 159.663 485.507L193.319 497.288C193.319 497.288 214.552 502.489 228.439 503.571C238.695 504.37 244.493 503.836 254.779 503.688C270.22 503.466 279.011 504.283 294.288 502C311.122 499.483 320.516 496.827 336.373 490.588C350.814 484.907 358.472 480.494 371.742 472.406C388.16 462.4 397.509 456.499 411.354 443.096C421.602 433.175 427.08 427.115 435.023 415.23C442.427 404.154 444.904 396.907 450.864 384.977C455.578 375.539 458.807 370.494 462.57 360.63C469.171 343.33 470.809 332.724 472.813 314.293C474.803 296 472.813 267.169 472.813 267.169C472.813 267.169 470.542 238.44 465.716 220.761C461.479 205.236 458.046 196.734 450.929 182.324C445.695 171.726 435.74 156.163 435.74 156.163C435.74 156.163 429.226 144.787 424.034 138.248C418.311 131.042 414.389 127.584 407.593 121.402C401.105 115.5 397.341 112.278 390.158 107.265C379.844 100.068 373.433 96.897 362.011 91.6829C349.595 86.015 329.13 79.9021 329.13 79.9021L327.52 57.6521L478.081 59.0658L501.333 8Z" fill="#6C5739"/>
<path d="M287 212.5L337.657 328.675L371.499 406L405.5 484H385.5V504H485.5V484H459.5L252 6L225.5 71.5" fill="#95774C"/>
<path d="M138.256 283L122 322H388L371.252 283H253.454H195.098H138.256Z" fill="#95774C"/>
</g>
</svg>
